<svg id="Layer_1" data-name="Layer 1" xmlns="http://www.w3.org/2000/svg" xmlns:xlink="http://www.w3.org/1999/xlink" viewBox="0 0 4500 2500"><defs><style>.cls-1{fill:none;}.cls-2{fill:#aed3f0;}.cls-3{fill:#c3dcf3;}.cls-11,.cls-12,.cls-13,.cls-14,.cls-15,.cls-16,.cls-18,.cls-19,.cls-20,.cls-21,.cls-22,.cls-23,.cls-24,.cls-25,.cls-26,.cls-27,.cls-28,.cls-29,.cls-3,.cls-30,.cls-31,.cls-32,.cls-33,.cls-34,.cls-36,.cls-5,.cls-6,.cls-9{fill-rule:evenodd;}.cls-4{clip-path:url(#clip-path);}.cls-5{fill:#2c79c0;}.cls-5,.cls-7,.cls-8{fill-opacity:0.94;}.cls-34,.cls-6{fill:#fff;}.cls-6{fill-opacity:0.39;}.cls-7{fill:#214f79;}.cls-8{fill:#e4effa;}.cls-9{fill-opacity:0.38;}.cls-10,.cls-11{fill:#034d49;}.cls-12{fill:#44ae9e;}.cls-13{fill:#3b988a;}.cls-14{fill:#ec6198;}.cls-15{fill:#e7347a;}.cls-16{fill:url(#linear-gradient);}.cls-17{fill:url(#linear-gradient-2);}.cls-18{fill:#06958d;}.cls-19{fill:#045d58;}.cls-20{fill:#ffc787;}.cls-21{fill:#304886;}.cls-22{fill:#7d94d0;}.cls-23{fill:#e6c53d;}.cls-24{fill:#be9e18;}.cls-25{fill:#ffab65;}.cls-26{fill:#4365bc;}.cls-27{fill:#a08514;}.cls-28{fill:url(#linear-gradient-3);}.cls-29{fill:url(#linear-gradient-4);}.cls-30{fill:url(#linear-gradient-5);}.cls-31{fill:url(#linear-gradient-6);}.cls-32{fill:url(#linear-gradient-7);}.cls-33{fill:url(#linear-gradient-8);}.cls-34{fill-opacity:0.67;}.cls-35,.cls-36{fill:#134f7b;}.cls-36{fill-opacity:0.17;}.cls-37{fill:#144f7b;}</style><clipPath id="clip-path"><rect class="cls-1" y="0.01" width="4500" height="2499.99"/></clipPath><linearGradient id="linear-gradient" x1="1290.85" y1="1790.2" x2="1292.04" y2="1790.2" gradientTransform="matrix(-607.4, -999.25, -999.25, 607.4, 2577393.99, 203766.64)" gradientUnits="userSpaceOnUse"><stop offset="0" stop-color="#fff" stop-opacity="0"/><stop offset="1" stop-color="#fff"/></linearGradient><linearGradient id="linear-gradient-2" x1="1291.25" y1="1790.62" x2="1292.43" y2="1790.62" gradientTransform="matrix(390.72, -658.32, -658.32, -390.72, 678053.63, 1550850.9)" xlink:href="#linear-gradient"/><linearGradient id="linear-gradient-3" x1="1290.93" y1="1790.25" x2="1292.11" y2="1790.94" gradientTransform="matrix(-780.08, -3745.19, -464.9, 6284.27, 1842972.55, -6414037.01)" xlink:href="#linear-gradient"/><linearGradient id="linear-gradient-4" x1="1291.3" y1="1789.44" x2="1292.48" y2="1788.86" gradientTransform="matrix(-976.56, -361.56, -581.99, 606.68, 2305660.9, -618050.38)" xlink:href="#linear-gradient"/><linearGradient id="linear-gradient-5" x1="1291.75" y1="1790.12" x2="1292.93" y2="1790.6" gradientTransform="matrix(-519.28, -617.79, -309.47, 1036.63, 1227655.5, -1056637.03)" xlink:href="#linear-gradient"/><linearGradient id="linear-gradient-6" x1="1298.79" y1="1794.03" x2="1299.98" y2="1794.72" gradientTransform="matrix(-84.35, -437.24, -50.27, 733.67, 202737.71, -747200.87)" xlink:href="#linear-gradient"/><linearGradient id="linear-gradient-7" x1="1291.95" y1="1790.56" x2="1293.13" y2="1791.23" gradientTransform="matrix(-383.61, -1296.35, -228.62, 2175.22, 908393.66, -2219885.94)" xlink:href="#linear-gradient"/><linearGradient id="linear-gradient-8" x1="1292.64" y1="1790.74" x2="1293.82" y2="1791.34" gradientTransform="matrix(-314.51, -555.08, -187.43, 931.4, 744995.42, -948352.05)" xlink:href="#linear-gradient"/></defs><g id="c73"><rect class="cls-2" y="0.01" width="4500" height="2499.99"/><path class="cls-3" d="M0,1887.85c57.7,26.51,124.42,45.9,203.46,53.81,210.9,21.06,400-110.16,595.73-162.5,621.37-166.18,1348.17-64.44,1946.65,139.72,335.43,114.41,612.87,384.54,916.08,581.12H0ZM4500,901.56c-238.87-49.33-495,18.5-795.07-134.77C3354.83,588,3291.86,249.3,3130,0H4500ZM1384.1,0C960.44,238.92,447.85,581,0,638.58V0Z"/><rect class="cls-1" y="0.01" width="4500" height="2499.99"/><g class="cls-4"><path class="cls-5" d="M-42.87,1865.91,3263,1780.08l850.88,814.12-4329.79,57.65Z"/><polygon class="cls-6" points="-9.92 2193.9 607.12 2193.9 550.17 2287.36 -66.87 2287.36 -9.92 2193.9"/><polygon class="cls-6" points="853.97 2193.9 1471 2193.9 1414.06 2287.36 797.02 2287.36 853.97 2193.9"/><polygon class="cls-6" points="1717.88 2193.9 2334.92 2193.9 2277.97 2287.36 1660.93 2287.36 1717.88 2193.9"/><rect class="cls-7" x="-78.58" y="1849.57" width="2312.36" height="129.25"/><rect class="cls-8" x="-78.58" y="1576.49" width="2312.36" height="273.08"/><path class="cls-9" d="M2131.46,2125.22c-113,13-227.77,106-337.84,139.35-122,36.95-254.37,67.45-366.72,128.58-44.69,24.31-119.09,31.12-153.75,71.19-21.21,24.5-10.86,49.38,11.66,68,83,68.71,168,114.68,273.56,139.85,153.94,36.69,316.61,9.84,472.61,20.28,186.7,12.51,375.81,50.21,563.2,44.86,29.36-.86,70.46-27.59,78.77-57.72,38.63-139.8-162.44-351.89-251.09-442.39"/><ellipse class="cls-10" cx="2395.42" cy="2327.17" rx="197.51" ry="480.23"/><path class="cls-11" d="M2014.63,1806s-19.2,420.78,21.15,500.66,176,108.81,176,108.81L2254.25,1870Z"/><path class="cls-12" d="M2626.84-51.43c-140.27,255.49-346.83,530.9-418.6,818.56-33.11,132.75-24.39,270.19-52.17,402.4-9.59,45.74-32.09,88.21-41.85,134.55-37.42,177.89-38.71,365.29-38.73,546.83,0,71.34-5,145,9.75,214.82,10.11,47.93,115.28,385.94,144.64,390.25,12.28,1.8,9.43-38.17,9.49-44.51.72-87.82-55.71-307.09,53.88-350.53,6.63-2.63,19.15-11.45,26.71-6.93,118.06,70.59,60.61,544,142.35,614.44,98.68,85,479.1,94.15,603.55,98.81,412.77,15.38,825.31,33.24,1238,50.29,109.22,4.49,440.73,55.78,529.69-19.79,45.95-39,41.74-278.88,48.6-342.67,35.95-334.3,44.15-674.24,50.7-1010.32,4.15-214,7.34-427.36,19.59-641.13,8.5-148,18.37-298.29,10.86-446.41-8-158.08-.08-395.1-97.32-531.25-31.55-44.16-88.49-87-140.93-100.9C4579.3-313.64,4405.93-300.1,4257-304c-160.8-4.22-320.83-20.2-481.81-13.7"/><path class="cls-13" d="M2075.51,1822.72c42.57,116.26,91.42,226.58,125.49,233.36,72.79,14.52,66.62-164.45,139.87-105.82,70.53,56.5,36.56,428.21,118,474.79,261.6,149.75,1403.55,107.79,1737,93.75,135.44-5.7,277.63-41.52,413.26-28.53,52.68,5,186.13,181.35,243.26,273.71-5.12,15.54-11.28,27.38-18.84,33.78-89,75.57-420.47,24.28-529.69,19.79-412.67-17.05-825.21-34.91-1238-50.29-124.45-4.66-504.87-13.85-603.55-98.81C2380.57,2598.06,2438,2124.6,2320,2054c-7.56-4.52-20.08,4.3-26.71,6.93-109.59,43.44-53.16,262.71-53.88,350.53-.06,6.34,2.79,46.31-9.49,44.51-29.36-4.31-134.53-342.32-144.64-390.25-14.74-69.84-9.75-143.48-9.75-214.82Q2075.49,1836.84,2075.51,1822.72Z"/><path class="cls-13" d="M3542.36-263.72C3571.74,1.53,3635.71,286.72,3570,492c-41.93,131-323.32,108.58-429.94,108.58-33.86,0-68.49,5.39-102.94,5.42-18.45,0-62.9-16.3-55.34.59,43.92,98.41,403.74,75.82,433.93,131.82,99.6,184.73-99,420.76-29.6,618.35,83.59,238,628.22,1005,1020.37,1469,143.94,13,358.14,30.5,427-28,45.95-39,41.74-278.88,48.6-342.67,35.95-334.3,44.15-674.24,50.7-1010.32,4.15-214,7.34-427.36,19.59-641.13,8.5-148,18.37-298.29,10.86-446.41-8-158.08-.08-395.1-97.32-531.25-31.55-44.16-88.49-87-140.93-100.9C4579.3-313.64,4405.93-300.1,4257-304c-160.8-4.22-320.83-20.2-481.81-13.7Z"/><path class="cls-11" d="M3805.14-353.6c-44,23.92,77.74,453.82,109.73,532.12,33.13,81.08,37.21,183.37,102,247.48C4132.39,540.47,4897.2,582.45,5051,536.55c52.79-15.75-97.69-428.93-129.62-520-137.5-392-423.23-569.39-839.57-525.74"/><path class="cls-14" d="M4758.22,2634.67S3747.28,1901.34,3537.64,1176.12c0,0-31.34-370.27,44.05-430.51s1157.82,44.13,1157.82,44.13l118.87,1102.39Z"/><path class="cls-15" d="M3578.58,748.31c-48.5,183.29-38,216.72,32,389.18,19.2,47.35,60.89,79.71,89.2,121.12,187,273.47,464.33,636.56,730,836.6,29.33,22.08,108.82,104.43,146.33,104.75,6,.06-25-39.13-27.51-41.9-28.2-31.47-49.25-68.85-64.82-108.36-43.51-110.37-76.11-221.08-93.27-337.95-6.81-46.42-52.09-193.31,41.23-176,53.65,10,199.25,303,228.55,349.7,63.35,100.92,105.06,199.82,157.87,304.82l-59.94,444.39S3747.28,1901.34,3537.64,1176.12C3537.64,1176.12,3507.19,816.08,3578.58,748.31Z"/><path class="cls-16" d="M3596.7,738.76c151-44.65,1142.81,51,1142.81,51l71.36,661.7-188.25,204.19s-655-556.88-797-652.72C3743.51,947.5,3650.64,834.53,3596.7,738.76Z"/><ellipse class="cls-17" cx="3862.31" cy="1009.17" rx="74.91" ry="292.9" transform="translate(556.44 3246.82) rotate(-48.74)"/><path class="cls-14" d="M4787.66,2499.59C4544.38,2226.71,4269,1486.23,4394,1263.54s383.7-133.25,383.7-133.25S5030.93,2772.47,4787.66,2499.59Z"/><path class="cls-18" d="M2831,974.52s44.31-110.88,81.58-132.82,267.57-6,331.22,45.45-122,693-191.85,849.79-137.5,280.39-137.5,280.39-322-134.33-334.68-184.77S2680.35,1471,2680.35,1471Z"/><path class="cls-19" d="M2845.53,990.44s42.81-107.67,78.8-129,258.44-5.8,319.91,44.12S3126.37,1578.53,3059,1730.76,2926.14,2003,2926.14,2003s-311-130.44-323.25-179.42S2700,1472.52,2700,1472.52Z"/><path class="cls-11" d="M2928.25,1999.13c-90.4-42.19-203.56-100.21-210.85-129.37-12.26-49,97.15-351.09,97.15-351.09L2960,1036.59s42.81-107.67,78.81-129c23.33-13.81,125.09-12.14,210.51,4.35,45.22,82.22-125.09,671.35-190.4,818.8C2998.59,1867,2939.94,1977.37,2928.25,1999.13Z"/><path class="cls-18" d="M1623,476.19c-44.74,44.4-206.24,975.7-213.29,1035S2357.17,1725.53,2467,1722.76s229.32-344.83,252.08-435.39-66.35-508.15-80.34-548.49S1667.7,431.79,1623,476.19Z"/><path class="cls-19" d="M1547,1532.53c-62.73-17.47-101.28-33.19-99.89-44.93,6.68-55.93,159-934.17,201.15-976,9.46-9.38,62.11-4,138.33,10.36,20,11,38.31,25,46.65,39.69,27.26,48,1.93,118.52,29.35,167.62,19.6,35,224.53,73.56,269.38,87.09,68.84,20.76,185.17,77.47,259.29,54.16,45.07-14.18,68-65,102.87-92.33,19-14.93,46-28.48,76.51-39,21.39,8.92,34.08,15.88,35.55,20.15,13.19,38,97.21,431.83,75.76,517.23s-134.12,408-237.71,410.59c-21.53.54-77.45-5.34-152.44-15.5-27.61-24.13-47.58-56.68-75.28-81.5-70.83-63.52-174.66-74.09-265.59-82-72.41-6.3-146.06,6.61-218.74-.79-31.36-3.19-67.37-20.82-99.22-15.31C1606.2,1496.63,1577,1512.83,1547,1532.53Z"/><path class="cls-19" d="M2376.12,754.39a63.31,63.31,0,0,0-20.83,12.3c-16,14.63-22.76,58.26,10.91,53.18,31.85-4.8,42.92-33,20.08-53.59"/><path class="cls-19" d="M2198.59,725.85c-16.65,5.44-36.38,49.86-9.27,48.94,22.22-.75,51.39-38.83,21.66-49.6"/><path class="cls-19" d="M2036.56,595.39c36.14,14.35,75.31,19.1,112.62,30.43,78.93,24,157.45,48.2,236.59,70.43,20.05,5.63,105.2,17.89,102.17,46.59-2,19.06-55.58-20.36-66.78-24.43-41.8-15.15-87.72-20.32-130.88-31.36q-92.3-23.59-184.9-46.22c-6.06-1.5-56.49-7.11-50.3-20.36"/><path class="cls-19" d="M1659.6,1514.52c-6.92,2-33.51,5.11-35.66,12.17-1.1,3.66,30.75,9.8,33.52,10,36,2.08,71.39,14.26,108,17.47,22,1.93,55.82,13.13,57.35,8.86,12-33.73-67.37-19-79.19-21.15-10-1.8-20.43-6.46-29-11.83"/><path class="cls-20" d="M766.19-114.58s484.6,528.52,643.55,721.31,337.1,367,337.1,367-.67,224,147.12,370.94l499.43-237-306.7-353s-191-289-344.65-532.41-272.33-399.2-272.33-399.2Z"/><path class="cls-21" d="M2261.83,1752.32s75.52-10.82,170.21-52.61,182.68-98.71,213.43-184.88l139.7-7.06s-17,130.77-139,227.08S2273.76,1884,2273.76,1884Z"/><path class="cls-22" d="M3041.35,1177.45s92.47,19.28,168.36,54c0,0-30.5,121.81-47.05,188.88,0,0-124.55-43.27-156.37-41.31C3006.29,1379,3034.92,1225.07,3041.35,1177.45Z"/><path class="cls-23" d="M1684.21,1145.63c49,5.66,232.59-63,280.69-78.28,177.69-56.44,358.33-105.72,539.21-150.47,58.79-14.55,191.76-64.19,252.64-39.21,71.37,29.27,257.64,180,279.24,254.63,12.39,42.76-3,97-3.51,140.52-.4,42.94,3.19,117.06-24.74,153.81-14.43,19-96.57,31.46-121.85,39.57-24.91,8-28.12,37.61-47.48,51.63-32.28,23.4-188.33,20.48-221.12-4-44.53-33.25-39.62-140.25-100.91-155.66-43.24-10.88-94,8-134.12,21.36-88.79,29.63-181.66,51.27-265,95.27-18.61,9.81-30.16,28.48-47.35,39.78-51.44,33.8-59.81,52.56-56.72,111.63.16,3.2,30.64,26.23,34.66,29.64,40.94,34.57,86.75,73.34,137,94.08,18,7.42,77.32-27,85.65-20.19,7.91,6.51,52.09,151,37.64,163-5.92,4.93-126.19,32-140.85,35.94-45.9,12.3-91.61,22.2-138.63,28.76-61,8.51-131,26.9-193.26,20.55-51.48-5.26-48.21-16.73-54.16-63.66-1.39-11.08-3.43-28.12.43-39.64,8-23.93,38.66-44.45,52-66.14,39.67-64.8,86.8-147,74.93-227.74-7.75-52.56-138.07-72.12-175-107.81-23-22.29-50-207.1-52.25-233.08Zm221,690.7c-16.68,16.3-30.8,24.87-44.34,34.61-8.34,6-21.88,11.32-23.25,23-.85,7.58-.69,18.2,1.13,25.48,3.67,14.85,4.74,26.35,23.7,26.75,4.15.08,8.34,0,12.49,0a53.83,53.83,0,0,0,17.48-3c6.49-2.07,29.38-6.93,29-9.86-1.29-9,.62-27.66-1.37-53C1918.84,1865.6,1917.39,1831.68,1905.17,1836.33Z"/><path class="cls-24" d="M2006.75,1573.56c-2.15-20.32.48-41-7.56-60.49-28.18-68.14-116.14-133.15-107.69-223,1.71-18,58.87-26.85,73.08-27.7,6.59-.39,23.45-2.24,24.23-11.59.57-6.64-13.59-19.52-16.91-25.08-19.49-32.55-59.57-46.62-83.17-74.53-12.51-14.85-20-43.8,1-55.15,35.15-19,111.42,4.73,148,10.84,83.27,13.91,177.56,36.68,261.47,13.26,64.74-18.07,120.83-101.31,190.72-53.2,25.6,17.63,39.86,47.72,51.44,75.61,6.81,16.35,15.95,32.39,20.65,49.55,5.71,20.83,6.14,42.5,13.53,63,20.06,55.42,33,61.7,31.45,122.82-.35,14.18-1,61.37-3.11,47.51C2575.6,1239.58,1983.67,1359.76,2006.75,1573.56Z"/><path class="cls-24" d="M1899.75,1214.1c-10.53-12-22.14-17.64-38.2-20.5-10.13-1.82-21.37-3.45-31.82-3.6-5.07-.07-30-3.74-33.73,4.5-5.65,12.56,18.39,29,26.92,34.5,25.87,16.75,69.33,47.25,84.42-1"/><path class="cls-24" d="M2624.18,942.41c-1.71-6.64-20.61-.56-24.5.36-25.34,6-62.73,16.05-40.16,47.12,27.4,37.66,83.29-9.68,61.9-43"/><path class="cls-24" d="M2793.91,1069.7c-12.65-10.21-20.35,11.77-15.71,22.23,9.54,21.6,31.71-1.38,27-16.71"/><path class="cls-24" d="M2786,1171.29c-14.82.14-22.73,31.9-7.77,38,32,13.12,36.56-29.53,12.68-43.16"/><path class="cls-24" d="M2679.09,1135.75c-5.85,8.61-10.22,18.15-14.56,27.59-4.83,10.48-19.38,36.32-17.27,48.29.7,4,11,7.92,13.73,11,14.5,16.14,29.28,27.07,39.57,47.13,14.8,28.74,5.82,85.33,4.26,117.45-.27,6-2.3,35,12.26,29.26,10.24-4,26.32-24.76,24.55-35.46-1-6.29-11.85-5.64-15-10.79-4.15-6.76-4.21-16.66-5.09-24.35-5.34-46.95,7.93-96.94-7-142.56-5-15.3-22.9,1.08-27.4-12.55-4.88-14.8,13.75-47.56-1.15-54.64"/><path class="cls-24" d="M1995.33,1678.53c-15.2,24.4-34.93,48.82-47.21,74.84-6.44,13.69,19.62,38.87,25.17,50.57,7.91,16.58,13.43,34.29,24.15,49.48,25.53,36.07,76.6,1.79,106-11.54,23.27-10.56,46.92-23.54,62.89-43.79,4.86-6.15,14.43-19.51,9.12-27.93-5.42-8.6-28.18-12.79-37.19-18.18-23.75-14.22-43.72-34-68.55-47.26-18.79-10.06-48.55-16.23-61.92-34.77"/><path class="cls-24" d="M2012.62,1605.42c-5.12-6-8.66-12.9-9.57-20.83-9.52-82.63,132.59-151.74,193.5-180,85-39.46,278.52-105.48,371.66-60.43,40.37,19.52,27.58,77.24,52.41,108.48,26.94,33.94,169.35,21.52,205.38,11.09,20.4-5.91,14.93-51.39,16.7-67.19,6.68-59.21,13.86-122.07,5.17-181.74-2.49-17.24-12.54-57.27,5-70.22,64.07-47.3,28.2,184.3,75.09,196.6,43.81,11.49,81.1-10.69,104.5-43.67-.08,42.75-1.6,98.75-24.71,129.16-14.43,19-96.57,31.46-121.85,39.57-24.91,8-28.12,37.61-47.48,51.63-32.28,23.4-188.33,20.48-221.12-4-44.53-33.25-39.62-140.25-100.91-155.66-43.24-10.88-94,8-134.12,21.36-88.79,29.63-181.66,51.27-265,95.27-18.61,9.81-30.16,28.48-47.35,39.78C2025,1544.06,2012.91,1562.1,2012.62,1605.42Z"/><path class="cls-20" d="M1959.22,1317.59c-6.84,22.67,7,64.67,13.8,90.9,9.3,36,17.86,74.24,31.8,108.79,7.48,18.54,18.23,48.69,37.77,58.42,24.37,12.11,37.29-9.13,58.18-5.63,8,1.34,10.05,11.8,14.85,16.45,9.65,9.33,22,11.66,35.09,9.24,21.69-4,42.68-17.35,57.91-33,3.27-3.36,12-23.88,13.78-24.26,25.09-5.44,50.29,14.91,76.27,5.49,15-5.43,36.27-15.85,48.34-26.76,4.07-3.68,8.09-24.68,11.2-25.78.64-.24,2.44,1.72,2.84,2a197.7,197.7,0,0,0,33,21.69c38.92,19.81,74-12.47,79.38-50.1,9.54-66.64,6.19-135.74-1.16-202.26-3.51-31.91-13.4-73.56-43.08-92.39-36.67-23.26-92.22-.29-131.52-.22-8.53,0-32.9,1.06-38.29,10-4,6.56,3.46,16-2.73,21.84-4.83,4.54-12.22,4.16-18.42,5.5-28.68,6.16-59.22-4.44-87.56,2.17-17.5,4.08-17.47,25.44-21.36,24.89-29-4.16-36.94-1.41-55.5,5.49-28.74,10.69-34.5,28.82-48.06,36.62C2014.68,1283.07,1971.15,1278,1959.22,1317.59Z"/><path class="cls-25" d="M1975,1320.19c6.48-10,14.12-8.74,25.3-10.22,4-.52,10.7-1,13.43-4.7,3.36-4.58-8.65-12.6-5.71-17.89.75-1.34,4.59,6.33,4.94,6.92,1.07,1.79,8.34,9.27,6.27,11.58-1.55,1.76-6.14,1.71-8.34,2.15-4.18.84-7.66,3.8-11.79,4.91-5.07,1.35-12.74.47-16.89,3.94"/><path class="cls-25" d="M2066.75,1276.38c3.21-9.7,21.12-13.25,29.59-14.79,3-.54,7.54,0,9.81-2.43,1.26-1.33-1.2-3.91-1.84-4.93-2.28-3.49-4.46-7.67-7.3-10.69-1.12-1.17-3.78-3.3-2.46-5.23,1-1.5,6.67,1.25,7.72,1.85,4.23,2.38,21,9.56,16.08,16.6-3.62,5.15-11.74,8.3-17.34,10.14-10.27,3.35-23.06,5.5-32.17,11.34"/><path class="cls-25" d="M2168.59,1241.8c4.45-4.6,10.67-7.4,16.41-10,3.86-1.71,7.75-3.15,11.77-4.49a55.91,55.91,0,0,1,11.45-2.24c.16,0,3.48-.83,3.48.07,0,3.18-8.18,5.51-10.32,6.47-9.28,4.16-17.4,13-27.93,11.53"/><path class="cls-25" d="M2153,1209.18l.16.14c15.39,13.76,62.33,37,82,44.42,15.79,6,33.35,7.79,46.84,18.58,6.16,4.92,10.1,23.65,11.77,31.14,6.54,29,16.19,57.34,16.16,87.37,0,14.36,3,48.11-4.47,61.42-3.7,6.6-11.64,7.76-18.21,9.84-15,4.75-63.78,23.66-73.75,1.16-7.72-17.45-8.36-38.76-13.06-57.35-7.47-29.59-17.29-58.75-25.38-88.21-1.24-4.53-13.22-44.53-18.74-43.36-3.62.76-1.93,11-1.83,13.34.67,14.54,6,28.7,11.1,42.19,14.35,37.93,27.46,79.89,27.46,120.93,0,13.5,2.65,33.87-11.29,42.15-9.38,5.57-20.16,8.71-30.86,10.22-79,11.11-69.51-66.74-80.37-124.64-3.19-17-7.67-36-14.34-51.94-1.42-3.41-5.55-13.49-10.67-12.67-9.87,1.59,2.17,45.9,3.94,51.26,13.59,40.88,20.75,80.08,26.14,122.62,2.52,19.76,7.56,41.52-17.91,44.91-16.6,2.21-24-25.86-29.87-36.72-8.93-16.61-22-30.85-30.53-47.71-8.21-16.21-10.91-34.63-18.64-51.07-3.21-6.88-8.73-15.66-15.87-20.67,3.76,10.71,7.54,21.36,10.27,32,9.3,36,17.86,74.24,31.8,108.79,7.48,18.54,18.23,48.69,37.77,58.42,24.37,12.11,37.29-9.13,58.18-5.63,8,1.34,10.05,11.8,14.85,16.45,9.65,9.33,22,11.66,35.09,9.24,21.69-4,42.68-17.35,57.91-33,3.27-3.36,12-23.88,13.78-24.26,25.09-5.44,50.29,14.91,76.27,5.49,15-5.43,36.27-15.85,48.34-26.76,4.07-3.68,8.09-24.68,11.2-25.78.64-.24,2.44,1.72,2.84,2a197.7,197.7,0,0,0,33,21.69c38.92,19.81,74-12.47,79.38-50.1,9.54-66.64,6.19-135.74-1.16-202.26-3.51-31.91-13.4-73.56-43.08-92.39-36.67-23.26-92.22-.29-131.52-.22-8.53,0-32.9,1.06-38.29,10-4,6.56,3.46,16-2.73,21.84-4.83,4.54-12.22,4.16-18.42,5.5C2210.33,1213.51,2180.68,1203.63,2153,1209.18Z"/><path class="cls-20" d="M1994.55,790.74c-41.93,15.92-78.52,47.42-104.18,84.36C1870.72,903.38,1854,934,1847.1,968c-6.65,32.57-.72,58.58,12.17,89,55.09,130,211.23,137.82,333.69,157.92,41.77,6.85,91.34,10.25,123.32,42.39,74.93,75.28-18.2,187,135.52,292.79,13.57,9.34,80.64,25.61,91.23,11.76,26.49-34.66-2-240.77-2.06-294.47,0-64.85-3.65-126.56-20.08-190.41-24.18-94-191.07-180.56-263.24-225.86-43.51-27.31-132.43-102.18-184.36-102.85"/><path class="cls-25" d="M1849,1028.1c45.31,34.56,100.4,71.37,153.54,91.23,93.16,34.81,189.29,49.84,288.73,51.78,23.43.45,49.62.11,69-15.39,1.63-1.31,17.48-27.8,17.8-27.64,6.91,3.8-4.4,25.34-6.12,28.88-7.85,16.17-42.46,50.24-33.91,67.69,11.72,23.94,54.4-4.33,69.49-5.51,4.48-.35,20.88-3.11,23.27,2.28,3,6.85-11.93,14.4-16.81,15.57-16,3.84-50,4.13-53.59,26.4-2.9,17.67,28.79,36.71,36,53.55,22.17,51.49-19.84,88,27.59,143.29,8.31,9.7,19.3,17.29,27.29,27,5.36,6.5,12.71,10.86,18,17.53,6,7.64,36.46,26.1,38,10.42a23,23,0,0,1-4.42-4c-4.45-5.17-6.68-22.93-7.83-41.88-9.17-26.56-18.58-54.82-10.45-77.22,10.4-28.74,83.08,8.28,41.41,2.2-5.54-.81-16.7-6.17-22.22-3.88-10.54,4.39-9.87,17.91-9.87,27.27,0,8.53-.1,30.79,1.13,51.63,5.15,14.86,10.21,29.18,12.09,41.64a16.15,16.15,0,0,1,.16,4.2c11.15,7.69,30.32,8.56,45.6,9.72-1.63,17.19-4.69,30.31-9.81,37-10.59,13.85-77.66-2.42-91.23-11.76-153.72-105.8-60.59-217.51-135.52-292.79-32-32.14-81.55-35.54-123.32-42.39-122.46-20.1-278.6-27.92-333.69-157.92A225.26,225.26,0,0,1,1849,1028.1Z"/><path class="cls-26" d="M1644.67,1159.53s-316.05,66-416,80.59-238.46,76-238.46,76-25.33,153.83,50.51,212.21c0,0,596.76-101.95,649.5-104.31Z"/><path class="cls-21" d="M1544.4,1180.16c-4.61,23.32-12,46.91-9.94,69.19,3.08,34,30.21,92.19,15.25,121.29-15.82,30.75-85.33,51.21-104,12-12.52-26.29-1.61-62.39-24-84.27-9.22-9.05-32-8.17-43-2.79-24.56,12-8.61,75.35-13.56,98.37-4.86,22.58-39.44,32.66-58.85,36.07-33.51,5.87-65.84-2.61-79-35.88-8-20.23-2.49-88.74-52.44-69.21-60.88,23.82,38.53,106.56-39.94,130.61-7,2.17-11,3-18.82,1.92-53.57-7.15-40.32-108-59.71-142.79-3.8-6.87-10-13.3-17.53-18.6-29.41,11.49-48.71,20-48.71,20s-25.33,153.83,50.51,212.21c0,0,596.76-101.95,649.5-104.31l-45.55-264.49S1602.66,1168.31,1544.4,1180.16Z"/><path class="cls-24" d="M1615.77,1142.83s60.1-21.14,99.57-17.92l49.16,364.94s-67.45,5.72-89.06,5.45S1616.49,1304.53,1615.77,1142.83Z"/><path class="cls-27" d="M1632.5,1137.55c-2,11.45.34,25.47,12.19,29.46a31.35,31.35,0,0,0,11.48,1.28c2.49-.34,5-.62,7.53-.87,6.52-1.09,13-2.91,18.45-4.08,6-1.29,12.17-1.68,18.2-2.82.62-.12,5.49-1.54,5.82-.38.43,1.47-3,2.53-3.81,2.78a77.64,77.64,0,0,1-17.85,3c-6.71.48-13.78.85-20.81,1.53a63.67,63.67,0,0,1-7.53.87,111.21,111.21,0,0,0-13.62,2.63c-2.71.72-11.8,2.3-12.79,5.73-1.45,5.07,7.75,16.17,10.67,19.75,9.65,11.78,16.54,7.19,30,4.19a192.08,192.08,0,0,1,27.48-4.24c5-.37,10.37-1.19,15.47-.77.85.07,5,.85,4.9,2.46-.11,1.36-3.35,2.17-4.26,2.49-5,1.81-10.24,2-15.44,2.89-18,3.18-36.3,6.62-54,11.3-4.39,1.17-15,3.31-14.39,9.83.27,2.84,2.87,5.85,4.13,8.35,2.52,5,6.94,13,12.76,14.82,5,1.57,12.36-.54,17.15-1.94,9.82-2.85,19.52-5.71,29.55-7.68,7.24-1.42,14.66-2.37,22-3.1.67-.06,6.11-.62,6.19,1s-3.89,3.5-4.93,4a75.13,75.13,0,0,1-15.74,6.72c-15,4-31.12,5.13-45.73,10.32-6.12,2.17-13.46,6.35-13.68,13.67-.16,5.14,1.8,9,3.17,13.84,1.39,5,1.68,11.47,5.63,15.3,6.73,6.55,24.12,1.61,31.74,0,8.79-1.88,17.61-3.75,26.46-5.2,3-.49,6-.74,9-1.11,1.37-.17,4.61-2,4.1-.71s-3.53,2.36-4.53,2.8c-5.17,2.29-10.08,4.69-15.44,6.61-14.37,5.16-29.35,7.38-43,14.39-3.46,1.78-8.68,3.83-10.45,7.74-2.79,6.14.78,14.67,2.44,20.56s3.8,12.21,8.34,16.7c5.3,5.25,13.59,3,19.73,1,14.63-4.75,28.87-10.38,43.67-14.83,6-1.81,12.54-3.78,18.87-4,.05,0,1.72,0,3.27.11l.46,3.29c-4.85,4.33-13.06,6.17-18.53,8.08-18.5,6.44-37.82,11.54-55.41,20.24-4.26,2.12-21.5,8.82-20.13,15.85.85,4.44,14.61,3.26,17.47,3.1,19.33-1,37.91-8.52,57.08-10.31,5.68-.53,11.45-.38,17.19-.38.59,0,5.12-.38,5.12,1.15s-3,2.57-4.16,3a101.62,101.62,0,0,1-14.07,4.93c-15.9,3.76-31.5,7.58-47.11,12.42-3.46,1.07-13.48,3.43-14.53,7.82-.94,3.88.54,7.88,1,11.7.62,4.81.67,10.16,3,14.54,4.37,8.44,14.37,6.44,22,4.26s15.69-2.53,23.38-4.85c7-2.12,15.31-6.46,23-4.65.81.19-1.2,1.16-1.85,1.65a47.91,47.91,0,0,1-4.45,2.48c-3.62,2.14-8,2.93-12,4.25-14,4.67-27,6.76-41.58,8.49-3,.36-10.89,3.39-9.92,8,2.49,11.8,21.12,8,28.84,6.66,14.53-2.44,27.72-8.59,42-11.29a71.6,71.6,0,0,1,18-.88l4.9,36.26s-67.45,5.72-89.06,5.45-59-190.77-59.67-352.47C1615.77,1142.83,1622.31,1140.52,1632.5,1137.55Z"/><path class="cls-21" d="M996.16,1344.29c2.68-20.71-37.21-6.44-48.39-6-10.91.47-23-4.56-33.43-2.94-7.37,1.15-11.85,8.44-18.9,9.92-8,1.7-16.14-2.57-24-1.48-8.23,1.13-11.12,10-18,12.49-8.18,2.91-17.51-.26-25.87,1.89-6.65,1.73-10.4,7.25-17.85,9-23.22,5.52-44.4,6.92-67.94,16.8-12.38,5.19-21.58,17.19-33.62,21.63-13.51,5-28.79,2.93-42.68,8.77-8.84,3.73-15.54,12.36-24.12,15.49-15.47,5.65-32.28,5.63-48,12.75-4.48,2-14,11.5-18.82,11.54-12.54.12-27.24-7.31-39.65-2.91-6.16,2.19-13.83,13.7-18.23,15.85-5.52,2.7-12-3.59-17.34-1.3-3.81,1.61-.54,13.7-3.6,14.9-8.92,3.51-18.71.1-27.8,3.86s-3.64,13.79-8.25,18.8c-16.38,17.79-21.8,36.22-11.13,61.7,19.17,45.74,50.4,109.69,105.25,118,7,1.05,10-18.66,14.34-23.15,6.71-6.91,18.21,5.53,25.34,3.47s6.73-13.12,17.8-14.22c12.36-1.24,25.68,4.58,37.59,2.77,7.74-1.18,5.89-10.37,13.61-11.19,11.56-1.23,24.37,3.73,35.61-.78,12-4.8,16.54-16.77,26.43-21.39,12.6-5.88,27,2.44,40.56-4.55,8.26-4.25,7.16-15.56,13.7-18.65,9.71-4.59,21.07.29,30.3-6.3,4.45-3.18,3.21-14.57,7.26-15.84,13.16-4.16,27.64,5.84,40.64.72,8.72-3.44,1-16.08,11.4-16.3,11.9-.24,30.83,14.16,41.93,7.94,10.37-5.82.18-24,9.73-29.77,10.37-6.24,25.84,5,37.18,3.91,7.13-.71,2.68-12.15,8.5-12.88,7.56-.94,16.09,5.94,23.91,6.44,3.09.2,50.32-15.94,50.67-16.28,8.39-8.53,4.8-28.88,3-39.14-5.41-31.06-14.45-61.55-19.86-92.27"/><path class="cls-26" d="M460.71,1501.83a8.44,8.44,0,0,1-1.07,1.58c-1.24,1.32-2.39,2.64-3.49,4,2.6,9.52,4.69,19.33,8,27.33,2.84,6.85,31.1,82.82,49.83,70.08,5.31-3.61-7.74-22.56-9.62-26.34-12.68-25.52-29.84-48.64-42.68-74.54C461.41,1503.31,461.06,1502.61,460.71,1501.83ZM474.43,1483c6.38,8.28,11.88,21.93,13.73,26.61,13.06,33.28,33.16,58.11,61.74,78.37,7.48,5.31,31.15,26.3,40.91,13,10-13.56-12.84-30.78-21-38.7-25.26-24.71-45.42-38.33-55.36-73.86-1.16-4.14-5-13.74-6.36-21.68-3.05-1-6.08-2-8.84-.87-3.81,1.61-.54,13.7-3.6,14.9C488.88,1483.43,481.57,1482.08,474.43,1483ZM530,1454.41c-3.65,3.13-7.37,7.66-10.4,10.48,7.8,7.63,16.94,17.76,17,17.83,21.56,23.81,40.43,50.2,61.63,74.47,2.52,2.87,15.34,19.66,21.32,16,5-3.08-21.5-29.71-23.62-31.85-24.13-24.34-37.56-55.68-60.7-80.68C534.75,1460.07,532.58,1457.64,530,1454.41Zm22-3.72.37.47c23.22,29,50.62,56.07,77.08,82.08,6.11,6,28.2,32.07,40.37,23,11.75-8.76-14.1-23.23-18.41-26.51-25.74-19.63-59.12-38.25-68.77-71.78-.48-1.69-1.12-4-1.71-6.54-2.47,1.62-4.75,2.82-6.44,2.83C567.43,1454.28,559.69,1451.94,552,1450.69Zm112.41-35.8c-8.34,3.94-14.85,12-23.08,15-11.45,4.18-23.62,5.26-35.58,8.42.46.83.89,1.57,1.23,2.17,17.86,30.09,40.49,59.13,69.44,79.19,4.74,3.29,27.83,25.4,35.33,19,5.23-4.5-3.83-21.39-5.68-26.24-11.29-29.66-31.31-57.6-39.84-88A83.42,83.42,0,0,1,664.43,1414.89Zm66.4-24.38c-7.5,5.51-14.42,12.1-22.68,15.15-7,2.59-14.5,3.28-22,4.16.43,1.85.72,3.34,1,4.23,8.53,33.19,14.48,65.31,41.64,88.83,6.48,5.61,13.67,16.18,23.64,13.28,8.47-2.45,6.78-18.66,7.13-25.62,1.45-29.27-22.44-50.64-27.5-77.67A137.25,137.25,0,0,1,730.83,1390.51Zm43.92-16.28a177,177,0,0,0-31.26,9.09c4.48,7.6,8,20.35,10.19,25.57,10,23.7,14.85,49.67,27,72.44,2.09,3.94,11.13,32.62,17.72,31.69,7.7-1.08,3-34.12,2.28-38.22A724.41,724.41,0,0,0,774.75,1374.23Zm87.55-25c-2.76,2.77-5.25,5.81-8.87,7.1-6.54,2.32-13.83.76-20.75,1.15a71.5,71.5,0,0,0,1.61,7.32c9.09,31.18,23.46,59.54,36.35,89.23,5.77,13.31,19.25,44.09,39.52,41.62,14.56-1.78,1.23-31.49-1.42-37.72-14.56-34.11-36.41-65-45-101.69C863.19,1354,862.71,1351.61,862.3,1349.23Zm13.09-5.54c.37,11.56,1,22.7,3,31.56,6.94,31.56,23.13,61.94,38.31,90.3,4.12,7.7,13.37,25.26,18.71,18.34,8.63-11.21-1.53-32.81-5.71-43.79-11.32-29.75-26.06-64.18-30.21-96.28a15.32,15.32,0,0,1-4,1.5C888.76,1346.74,882,1344,875.39,1343.69Zm-60.19,21.36a21.27,21.27,0,0,1-5.49,2.18c-6.87,1.64-13.57,2.91-20.19,4.15,9.92,27.3,18.9,55.43,32.81,80.66,2.39,4.36,18.18,35.2,28.31,28.52,5.12-3.4-.88-23.51-1.71-27.81-5.58-28.91-26-52.4-32.39-81.79C816.17,1369.19,815.68,1367.2,815.2,1365.05ZM959,1336.44c.91,28.07,1.74,54.6,11.21,82.88,5.55,16.65,16.14,32.4,26.59,46.39.91,1.19,9.09,12.9,11.37,8.69,9.38-17.21,4.4-49.72,4.4-68.79,0-11.48.48-23.32.75-35.22l-17.19-26.1C998.23,1328.3,974.9,1333.17,959,1336.44ZM918,1335.09c5.66,34,5.63,64.76,20.64,98,1.64,3.63,15.69,39.84,21.85,37.91,5.71-1.78,3-32,3-36,0-32.51-11.82-64-15.57-96.64h-.11C938.12,1338.76,927.48,1334.86,918,1335.09Z"/><path class="cls-26" d="M448.32,1538.11S95.2,1749.22-29.95,1934.47L5.87,2112s308.76-297.26,525.75-447.4Z"/><path class="cls-21" d="M464.54,1562.76c-14.42,20,9.65,56.51,6.92,80.17-3.19,27.48-30.35,46.39-50.59,61.88-75.33,57.59-152.46,113.27-227.07,171.8-54.1,42.46-104.58,89.62-159.35,131.18a467.84,467.84,0,0,0-42.17,36.86L5.87,2112s302.43-291.16,519-442.71c1.42-2.86,2.79-5.74,4.15-8.64Z"/><path class="cls-11" d="M2761.31-78.46c-59.11,25.38-126.78,156.81-157.66,209.85-57.05,98.09-108.1,190.38-148.26,296.64-9.3,24.56-32.89,88.91-10.21,113,32.49,34.51,111.18,13.21,150.05,6.69,33.16-5.58,66.78-12.56,98.68-23.51,104.58-35.89,255.41-64.55,330.8-150.64,59.19-67.63,103.91-158.09,158-230.8,34.1-45.84,57.32-93.52,85.2-152.65,3.54-7.51,32.36-35.05,21-45.56-44.77-41.43-248.55-25.64-306-23.47C2917.2-76.43,2823.61-98.76,2761.31-78.46Z"/><path class="cls-19" d="M2664.74,499.61c-14.9,3.43-29.89,6.31-44.82,8.88-37.83,6.53-114.45,27.83-146.06-6.68-22.09-24.1.89-88.45,9.92-113,39.12-106.26,88.8-198.55,144.34-296.64,8.34-14.72,19.44-35.48,32.36-58.32,30.8-49.12,67.21-97.86,100.83-112.3,58.85-19.18,145.65-.3,210.42-.25-53.32,113.56-188.62,398.4-260.1,519.22A268.54,268.54,0,0,1,2664.74,499.61ZM3007.23-80c73.27-3.67,227.07-11.43,275.49,19.86-3.73,4.82-6.95,8.84-8,11.08C3247.6,10,3225,57.7,3191.81,103.55c-52.63,72.7-96.17,163.17-153.81,230.8-59.06,69.31-165.76,101.4-258.22,130C2765.14,364,2946.37,28.93,3007.23-80Z"/><path class="cls-28" d="M3313.82,933.15c-4.34,37.47,3.58,73.49-5.28,111.4-40.4,172.74-207.1,552.05-114.24,716.7,51.53,91.37,149.82,106.1,225.86,165.81,73.33,57.58,115.33,136.53,178.37,201.66,16.7,17.25,231,279.17,259.62,188.19,30.41-96.85-243.25-494.24-300.89-595.08C3515.65,1649,3480,1571.66,3456.5,1491.6c-18.55-63.13-44.83-131.3-48.63-197.26-1-18.14-.36-36.53-.36-54.7v-33.32c0-12.19-.05-23.78,1.44-35.79.38-3.13.19-6.3.61-9.43,10.26-75.86,60.52-200.26-19.23-250-20.76-12.94-41.43-12-57.9,6.13"/><path class="cls-29" d="M3349.68,468.11c-87.93-1.8-171.94,10.82-259,20.74-104.17,11.87-207.86,21.6-310,46.53-49.44,12.06-97.86,28.16-146.07,44.37-4.75,1.6-37.75,10.62-33.19,20.91,7.64,17.21,164.44-9.89,188.86-12.51,168.41-18.06,343.72-24.42,510-57.28,26.75-5.28,185.88-26.33,168.06-49.37-10.87-14.05-35-13-50.65-13.52"/><path class="cls-30" d="M2741.54,878.75c-31.19-1.66-180.87,30.58-201.52,47.76-2.65,2.21,6.83.81,10.25.89,13.37.31,26.73-2.09,40.15-2.15,34.94-.14,59.33,9.13,82.1,35.3,24.41,28.06,10.95,70.76,34.9,98.21,5.64,6.47,18.28,8.67,25.86,11.33,65.59,23.08,110.45-17.91,168.37-1,28.75,8.43,63.45,75.83,86.28,55.49,37.26-33.22-11.64-72.67-34.42-90.52-27.78-21.79-38-38.38-70.05-58.4-31.08-19.4-55.49-45.24-87.5-62.65C2781,904.89,2754.25,889.9,2741.54,878.75Z"/><path class="cls-31" d="M2951.55,1057c-47.09,2,15,117.19,23.41,133.6,3.07,6,13.77,30.65,23.47,30.25,12.32-.51,10.92-46.46,10.31-53.26-3.15-35-4.17-109-53.56-114.12"/><path class="cls-32" d="M3406.13-110c-33.58,74-64.45,148-99.39,221.65-26.45,55.79-65.74,99.57-96.71,152-69.2,117.11,2.55,123.67,97,122.52,46.75-.58,109.94,2.58,151.62-23.56,72.43-45.43,88-304.76,28.4-363.17-23.47-23-60.85-19.34-90.39-19.35"/><path class="cls-33" d="M2600.08,1900.67c2.05,115.59,250.14,128.6,279.63,202,4,9.86-79,11-85,10.36-65.25-6.57-167.32-87.6-180.87-154.94"/></g><path class="cls-34" d="M2160.57,201.46c0-50.9-41.19-92.22-91.93-92.22H366.7c-50.73,0-91.92,41.32-91.92,92.22v693c0,50.9,41.19,92.22,91.92,92.22H2068.64c50.74,0,91.93-41.32,91.93-92.22Z"/><rect class="cls-35" x="434.86" y="644.43" width="1571.28" height="12.32"/><path class="cls-36" d="M452.38,603.8H2003.27v-332c-15.72-5.56-32.47-6.43-47.49,3.24-42.5,27.34-79.3,77.34-103.75,121-37.83,67.55-68.81,144.88-162.68,127.36-101.09-18.87-163.23-171.66-266.11-154.29C1312.66,387.78,1274.41,548.28,1144.58,512c-90.21-25.24-148.24-102.67-211.12-166.87C891.13,301.87,854,256.91,787.6,262.57,671.22,272.51,585.1,406.36,522.49,490.7,505.23,514,467.36,565.44,452.38,603.8Z"/><ellipse class="cls-35" cx="2003.63" cy="280.02" rx="24.26" ry="24.34"/><path class="cls-37" d="M1908.8,363.93v-6.76a43.58,43.58,0,0,0,6.57-.63,9.27,9.27,0,0,0,4.87-2.65,8.75,8.75,0,0,0,1.94-3.62,8.57,8.57,0,0,0,.38-2h8.24v50.55h-10.15V363.93Z"/><path class="cls-37" d="M1963,392q4.43,0,5.79-4.62T1970.2,374q0-9.13-1.37-13.53t-5.79-4.39q-4.41,0-5.83,4.39T1955.78,374q0,8.72,1.43,13.33T1963,392ZM1980.42,374q0,12.51-3.88,19.27t-13.5,6.77q-9.61,0-13.5-6.77T1945.67,374q0-12.52,3.87-19.32t13.5-6.79q9.63,0,13.5,6.79T1980.42,374Z"/><path class="cls-37" d="M2002.62,392q4.41,0,5.79-4.62t1.37-13.33q0-9.13-1.37-13.53t-5.79-4.39q-4.41,0-5.83,4.39T1995.36,374q0,8.72,1.43,13.33T2002.62,392ZM2020,374q0,12.51-3.88,19.27t-13.5,6.77q-9.61,0-13.5-6.77T1985.25,374q0-12.52,3.87-19.32t13.5-6.79q9.63,0,13.5,6.79T2020,374Z"/><path class="cls-37" d="M2046.89,347.58h9.73v27.68L2069,361h12.26L2068,375.51l13.76,23.28h-11.95l-9.07-16.24-4.1,4.28v12h-9.73Z"/><path class="cls-37" d="M2138.24,364.35a10.9,10.9,0,0,1,2.16,4.88,34,34,0,0,1,.35,5.61l-.07,24h-10.15V374.6a8,8,0,0,0-.69-3.56c-.88-1.76-2.51-2.65-4.87-2.65a5.69,5.69,0,0,0-5.66,3.42,10.64,10.64,0,0,0-.8,4.36v22.62h-10V376.17a12.79,12.79,0,0,0-.7-4.92c-.83-1.83-2.47-2.75-4.9-2.75q-4.24,0-5.7,2.75a10.68,10.68,0,0,0-.8,4.67v22.87h-10V360.87H2096v5.54a15.64,15.64,0,0,1,3.47-4.22,13.71,13.71,0,0,1,14.49-.31,11.14,11.14,0,0,1,3.27,4.56,12.47,12.47,0,0,1,4.83-4.91,14.63,14.63,0,0,1,6.81-1.57,13.12,13.12,0,0,1,4.93,1A11,11,0,0,1,2138.24,364.35Z"/><rect class="cls-35" x="1531.72" y="766.2" width="88.14" height="19.29"/><rect class="cls-35" x="1531.72" y="807.41" width="88.14" height="19.29"/><path class="cls-37" d="M1751.81,843.85q7.13-.9,10.43-3.27c3.77-2.78,5.68-7.6,5.68-14.45,0-5.2-1.79-9.32-5.33-12.35-2.09-1.76-5.74-3.57-10.78-5.45Zm-8.58-94.93c-5.27.12-9.15,1.52-11.7,4.22s-3.83,6.37-3.83,11a14.45,14.45,0,0,0,5.74,12.08c2.08,1.63,5.39,3.15,9.79,4.54ZM1752,882.37h-8.75V864.29c-11.94-1.33-20.8-3.93-26.66-7.81q-15.46-10.46-15.18-35.61h24.46q1.22,11.45,3.47,15.35,3.57,6.09,13.91,7.9V805.33l-7.36-2.18c-11.53-3.39-19.64-8.12-24.4-14.17s-7.13-13.35-7.13-21.89a40.63,40.63,0,0,1,2.79-15.36,35.46,35.46,0,0,1,7.7-11.9,35,35,0,0,1,14.32-8.9,65.68,65.68,0,0,1,14.08-2.27V716.58h8.58v12.26q14.78,1.17,23.18,7.27,15.3,9.72,15.88,31.52H1767c-.47-5.39-1.34-9.32-2.67-11.81q-3.48-6.45-12.52-7.08v34.61q21.56,7.44,29,13.17,12.26,9.54,12.23,26.89,0,22.9-16.75,33.25c-6.84,4.24-14.9,6.73-24.29,7.45Z"/><path class="cls-37" d="M1811,835q5.48-13.17,26.08-27.89,17.82-12.81,23.07-18.35c5.39-5.76,8.06-12.05,8.06-18.9,0-5.57-1.51-10.2-4.58-13.9s-7.48-5.54-13.22-5.54c-7.88,0-13.21,2.94-16,8.81-1.62,3.39-2.61,8.78-2.9,16.17h-25.09c.46-11.2,2.43-20.25,6.08-27.16q10.35-19.71,36.69-19.72,20.77,0,33.15,11.59t12.29,30.66a41.57,41.57,0,0,1-8.7,26c-3.76,5-10,10.63-18.72,16.81l-10.37,7.36q-9.64,6.9-13.22,10a28,28,0,0,0-6,7.18h57.32v22.8h-90A61.62,61.62,0,0,1,1811,835Z"/><path class="cls-37" d="M1953.38,843c7.65,0,12.7-4,15.07-12s3.6-19.61,3.6-34.75q0-23.81-3.6-35.25c-2.37-7.63-7.42-11.45-15.07-11.45s-12.75,3.82-15.18,11.45-3.71,19.38-3.71,35.25q0,22.71,3.71,34.75C1940.63,839,1945.73,843,1953.38,843Zm45.27-46.79q0,32.61-10.09,50.23t-35.18,17.63c-16.69,0-28.45-5.87-35.18-17.63s-10.08-28.49-10.08-50.23,3.36-38.52,10.08-50.33,18.49-17.71,35.18-17.71,28.46,5.9,35.18,17.71S1998.65,774.5,1998.65,796.25Z"/><path class="cls-36" d="M435,383.42c25.07-6.79,53.81,13.65,71.83,29.13,48.76,41.89,99,117.43,172.31,103C732.74,505.07,782.92,457.3,826,427c109.44-77.11,240.17-186.52,384.09-171.1,98.57,10.57,208.78,127.35,285.43,187.1,33.52,26.14,63.24,56.28,106.84,64.07,55.9,10,95.31-44.39,151.26-39.83,56.5,4.6,92.06,76.23,148.84,66.13,26.61-4.73,64.07-37.18,100.86-57.05V603.8H435Z"/></g></svg>