<?xml version="1.0" encoding="UTF-8" standalone="no"?><!DOCTYPE svg PUBLIC "-//W3C//DTD SVG 1.1//EN" "http://www.w3.org/Graphics/SVG/1.1/DTD/svg11.dtd"><svg width="4000px" height="2500px" version="1.1" xmlns="http://www.w3.org/2000/svg" xmlns:xlink="http://www.w3.org/1999/xlink" xml:space="preserve" xmlns:serif="http://www.serif.com/" style="fill-rule:evenodd;clip-rule:evenodd;stroke-linejoin:round;stroke-miterlimit:2;"><g id="c99"></g><g transform="matrix(2.2689,0,0,2.2689,-4516.39,-346.669)"><g id="c73"><g><g transform="matrix(0.441052,0,0,0.441052,1991.3,152.728)"><rect x="111.817" y="218.725" width="3805.79" height="2107.56" style="fill:rgb(174,211,240);"/></g><g transform="matrix(1,0,0,1,1721.93,-1137.97)"><path d="M318.689,2089.1C340.212,2098.96 365.101,2106.17 394.584,2109.11C473.252,2116.94 543.806,2068.15 616.799,2048.69C848.577,1986.9 1119.68,2024.73 1342.92,2100.64C1468.04,2143.18 1571.53,2243.62 1684.63,2316.71L318.689,2316.71L318.689,2089.1ZM1997.24,1722.38C1908.14,1704.04 1812.59,1729.26 1700.67,1672.27C1570.08,1605.78 1546.59,1479.86 1486.23,1387.17L1997.24,1387.17L1997.24,1722.38ZM834.974,1387.17C676.941,1476 485.739,1603.19 318.689,1624.6L318.689,1387.17L834.974,1387.17Z" style="fill:rgb(195,220,243);"/></g></g><g transform="matrix(0.441052,0,0,0.441052,1991.3,152.728)"><rect x="111.817" y="218.725" width="3805.79" height="2107.56" style="fill:none;"/><clipPath id="_clip1"><rect x="111.817" y="218.725" width="3805.79" height="2107.56"/></clipPath><g clip-path="url(#_clip1)"><g transform="matrix(2.26731,0,0,2.26731,-4514.88,-346.281)"><g transform="matrix(1,0,0,0.670505,-2.27374e-13,406.993)"><path d="M2024.62,799.368L3257.76,751.77L3575.15,1203.23L1960.09,1235.2L2024.62,799.368Z" style="fill:rgb(44,121,192);fill-opacity:0.94;"/></g><g transform="matrix(0.440742,0,-0.269426,0.440742,2548.15,152.792)"><rect x="105.159" y="2069.54" width="522.215" height="78.843" style="fill:white;fill-opacity:0.39;"/></g><g transform="matrix(0.440742,0,-0.269426,0.440742,2870.39,152.792)"><rect x="105.159" y="2069.54" width="522.215" height="78.843" style="fill:white;fill-opacity:0.39;"/></g><g transform="matrix(0.440742,0,-0.269426,0.440742,3192.64,152.792)"><rect x="105.159" y="2069.54" width="522.215" height="78.843" style="fill:white;fill-opacity:0.39;"/></g><g transform="matrix(1,0,0,0.384388,-2.27374e-13,606.35)"><rect x="2011.3" y="859.931" width="862.537" height="125.025" style="fill:rgb(33,79,121);fill-opacity:0.94;"/></g><g transform="matrix(1,0,0,-0.812118,-2.27374e-13,1635.26)"><rect x="2011.3" y="859.931" width="862.537" height="125.025" style="fill:rgb(228,239,250);fill-opacity:0.94;"/></g><path d="M2835.67,1039.39C2793.52,1044.21 2750.71,1078.8 2709.65,1091.2C2664.15,1104.94 2614.77,1116.28 2572.86,1139.01C2556.19,1148.05 2528.44,1150.58 2515.51,1165.48C2507.6,1174.59 2511.46,1183.84 2519.86,1190.77C2550.82,1216.32 2582.52,1233.41 2621.9,1242.77C2679.32,1256.41 2740,1246.43 2798.19,1250.31C2867.83,1254.96 2938.37,1268.98 3008.27,1266.99C3019.22,1266.67 3034.55,1256.73 3037.65,1245.53C3052.06,1193.55 2977.06,1114.69 2943.99,1081.04" style="fill-opacity:0.38;"/><g transform="matrix(1,0,0,1,-23.8315,-28.2425)"><ellipse cx="2957.96" cy="1142.72" rx="73.675" ry="178.559" style="fill:rgb(3,77,73);"/></g><path d="M2792.09,920.696C2792.09,920.696 2784.93,1077.15 2799.98,1106.85C2815.02,1136.56 2865.64,1147.31 2865.64,1147.31L2881.47,944.473L2792.09,920.696Z" style="fill:rgb(3,77,73);"/><path d="M3020.45,230.071C2968.13,325.065 2891.08,427.468 2864.31,534.427C2851.96,583.784 2855.21,634.889 2844.85,684.047C2841.27,701.054 2832.88,716.845 2829.24,734.073C2815.28,800.215 2814.8,869.895 2814.79,937.396C2814.79,963.92 2812.93,991.303 2818.43,1017.27C2822.2,1035.09 2861.43,1160.77 2872.38,1162.37C2876.96,1163.04 2875.9,1148.18 2875.92,1145.82C2876.19,1113.17 2855.14,1031.64 2896.02,1015.49C2898.49,1014.51 2903.16,1011.23 2905.98,1012.91C2950.02,1039.16 2928.59,1215.2 2959.08,1241.37C2995.89,1272.96 3137.79,1276.38 3184.21,1278.11C3338.18,1283.83 3492.06,1290.47 3645.99,1296.81C3686.73,1298.48 3810.39,1317.55 3843.57,1289.45C3860.71,1274.94 3859.14,1185.76 3861.7,1162.04C3875.11,1037.74 3878.17,911.347 3880.61,786.384C3882.16,706.804 3883.35,627.485 3887.92,548.002C3891.09,492.98 3894.77,437.093 3891.97,382.017C3888.98,323.243 3891.94,235.114 3855.67,184.489C3843.9,168.072 3822.66,152.157 3803.1,146.975C3748.74,132.575 3684.07,137.612 3628.51,136.158C3568.53,134.589 3508.84,128.648 3448.79,131.064" style="fill:rgb(68,174,158);"/><path d="M2814.8,926.915C2830.68,970.142 2848.9,1011.16 2861.61,1013.68C2888.76,1019.08 2886.46,952.535 2913.78,974.336C2940.09,995.342 2927.42,1133.55 2957.78,1150.87C3055.36,1206.55 3481.32,1190.95 3605.71,1185.73C3656.23,1183.61 3709.27,1170.29 3759.86,1175.12C3779.51,1176.99 3829.29,1242.55 3850.6,1276.89C3848.69,1282.67 3846.39,1287.07 3843.57,1289.45C3810.39,1317.55 3686.73,1298.48 3645.99,1296.81C3492.06,1290.47 3338.18,1283.83 3184.21,1278.11C3137.79,1276.38 2995.89,1272.96 2959.08,1241.37C2928.59,1215.2 2950.02,1039.16 2905.98,1012.91C2903.16,1011.23 2898.49,1014.51 2896.02,1015.49C2855.14,1031.64 2876.19,1113.17 2875.92,1145.82C2875.9,1148.18 2876.96,1163.04 2872.38,1162.37C2861.43,1160.77 2822.2,1035.09 2818.43,1017.27C2812.93,991.303 2814.79,963.92 2814.79,937.396C2814.79,933.906 2814.8,930.411 2814.8,926.915Z" style="fill:rgb(59,152,138);"/><path d="M3361.95,151.137C3372.91,249.762 3396.77,355.8 3372.27,432.143C3356.63,480.866 3251.67,472.514 3211.9,472.515C3199.27,472.515 3186.35,474.52 3173.5,474.531C3166.62,474.537 3150.04,468.47 3152.86,474.75C3169.24,511.342 3303.46,502.94 3314.72,523.764C3351.87,592.448 3277.79,680.209 3303.68,753.675C3334.86,842.154 3538.01,1127.36 3684.29,1299.86C3737.98,1304.69 3817.88,1311.2 3843.57,1289.45C3860.71,1274.94 3859.14,1185.76 3861.7,1162.04C3875.11,1037.74 3878.17,911.347 3880.61,786.384C3882.16,706.804 3883.35,627.485 3887.92,548.002C3891.09,492.98 3894.77,437.093 3891.97,382.017C3888.98,323.243 3891.94,235.114 3855.67,184.489C3843.9,168.072 3822.66,152.157 3803.1,146.975C3748.74,132.575 3684.07,137.612 3628.51,136.158C3568.53,134.589 3508.84,128.648 3448.79,131.064L3361.95,151.137Z" style="fill:rgb(59,152,138);"/><path d="M3459.97,117.717C3443.56,126.611 3488.97,286.459 3500.9,315.57C3513.26,345.717 3514.78,383.75 3538.93,407.588C3582.04,450.151 3867.32,465.758 3924.69,448.693C3944.38,442.838 3888.25,289.21 3876.34,255.362C3825.05,109.597 3718.47,43.653 3563.17,59.884" style="fill:rgb(3,77,73);"/><path d="M3815.48,1228.81C3815.48,1228.81 3438.39,956.147 3360.19,686.497C3360.19,686.497 3348.5,548.825 3376.62,526.424C3404.73,504.024 3808.5,542.832 3808.5,542.832L3852.84,952.722L3815.48,1228.81Z" style="fill:rgb(236,97,152);"/><path d="M3375.46,527.428C3357.37,595.581 3361.29,608.01 3387.38,672.133C3394.54,689.738 3410.09,701.77 3420.65,717.166C3490.4,818.85 3593.85,953.852 3692.97,1028.23C3703.91,1036.44 3733.56,1067.06 3747.55,1067.18C3749.78,1067.2 3738.22,1052.63 3737.29,1051.6C3726.77,1039.9 3718.92,1026 3713.11,1011.31C3696.88,970.273 3684.72,929.106 3678.32,885.653C3675.78,868.392 3658.89,813.777 3693.7,820.217C3713.71,823.918 3768.02,932.882 3778.95,950.242C3802.58,987.765 3818.14,1024.54 3837.84,1063.58L3815.48,1228.81C3815.48,1228.81 3438.39,956.147 3360.19,686.497C3360.19,686.497 3348.83,552.626 3375.46,527.428Z" style="fill:rgb(231,52,122);"/><path d="M3382.22,523.879C3438.55,507.275 3808.5,542.832 3808.5,542.832L3835.12,788.867L3764.9,864.788C3764.9,864.788 3520.58,657.729 3467.61,622.095C3436.98,601.491 3402.34,559.488 3382.22,523.879Z" style="fill:url(#_Linear2);"/><g transform="matrix(0.21226,0.185559,-0.185559,0.21226,2869.87,-329.621)"><ellipse cx="3859.93" cy="1120.31" rx="386.984" ry="98.926" style="fill:url(#_Linear3);"/></g><g transform="matrix(0.999036,0.0438999,-0.0438999,0.999036,44.2146,-164.51)"><path d="M3837.56,1175.76C3742.45,1078.38 3627.73,807.833 3670.67,723.065C3713.62,638.297 3811.48,667.284 3811.48,667.284C3811.48,667.284 3932.67,1273.14 3837.56,1175.76Z" style="fill:rgb(236,97,152);"/></g><path d="M3096.6,611.539C3096.6,611.539 3113.13,570.312 3127.03,562.154C3140.93,553.997 3226.84,559.936 3250.58,579.051C3274.33,598.167 3205.06,836.727 3179.02,895.018C3152.97,953.31 3127.73,999.273 3127.73,999.273C3127.73,999.273 3007.62,949.328 3002.89,930.572C2998.16,911.817 3040.41,796.134 3040.41,796.134L3096.6,611.539Z" style="fill:rgb(6,149,141);"/><g transform="matrix(0.965846,0,0,0.971025,111.188,23.6364)"><path d="M3096.6,611.539C3096.6,611.539 3113.13,570.312 3127.03,562.154C3140.93,553.997 3226.84,559.936 3250.58,579.051C3274.33,598.167 3205.06,836.727 3179.02,895.018C3152.97,953.31 3127.73,999.273 3127.73,999.273C3127.73,999.273 3007.62,949.328 3002.89,930.572C2998.16,911.817 3040.41,796.134 3040.41,796.134L3096.6,611.539Z" style="fill:rgb(4,93,88);"/></g><path d="M3132.88,992.506C3099.16,976.821 3056.95,955.246 3054.23,944.405C3049.66,926.193 3090.47,813.862 3090.47,813.862L3144.73,634.616C3144.73,634.616 3160.7,594.583 3174.13,586.661C3182.83,581.525 3220.79,582.144 3252.65,588.277C3269.52,618.846 3205.99,837.897 3181.63,892.722C3159.12,943.358 3137.24,984.415 3132.88,992.506Z" style="fill:rgb(3,77,73);"/><path d="M2645.99,426.249C2629.3,442.758 2569.06,789.034 2566.43,811.086C2563.8,833.139 2919.86,890.777 2960.84,889.748C3001.82,888.719 3046.38,761.532 3054.87,727.861C3063.35,694.19 3030.12,538.923 3024.9,523.924C3019.68,508.924 2662.68,409.74 2645.99,426.249Z" style="fill:rgb(6,149,141);"/><path d="M2617.64,819.017C2594.24,812.52 2579.86,806.676 2580.38,802.311C2582.87,781.515 2639.67,454.97 2655.41,439.402C2658.94,435.913 2678.58,437.904 2707.01,443.254C2714.47,447.339 2721.3,452.544 2724.41,458.01C2734.58,475.877 2725.13,502.078 2735.36,520.334C2742.67,533.367 2819.11,547.687 2835.84,552.716C2861.52,560.436 2904.91,581.52 2932.56,572.853C2949.37,567.582 2957.93,548.68 2970.93,538.524C2978.03,532.973 2988.09,527.935 2999.47,524.021C3007.45,527.337 3012.18,529.924 3012.73,531.511C3017.65,545.656 3048.99,692.075 3040.99,723.828C3032.99,755.581 2990.96,875.52 2952.32,876.491C2944.29,876.692 2923.43,874.505 2895.46,870.728C2885.16,861.758 2877.71,849.654 2867.38,840.427C2840.96,816.807 2802.23,812.877 2768.31,809.934C2741.3,807.589 2713.83,812.389 2686.72,809.638C2675.02,808.451 2661.59,801.899 2649.71,803.947C2639.74,805.666 2628.84,811.692 2617.64,819.017Z" style="fill:rgb(4,93,88);"/><path d="M2926.93,529.689C2924.04,530.781 2921.47,532.168 2919.16,534.262C2913.18,539.702 2910.67,555.925 2923.23,554.037C2935.11,552.251 2939.24,541.771 2930.72,534.11" style="fill:rgb(4,93,88);"/><path d="M2860.71,519.078C2854.5,521.099 2847.14,537.615 2857.25,537.274C2865.54,536.994 2876.42,522.836 2865.33,518.831" style="fill:rgb(4,93,88);"/><path d="M2800.27,470.57C2813.75,475.905 2828.36,477.671 2842.28,481.883C2871.72,490.793 2901.01,499.808 2930.53,508.072C2938.01,510.166 2969.77,514.725 2968.64,525.396C2967.88,532.482 2947.91,517.825 2943.73,516.311C2928.14,510.677 2911.01,508.756 2894.91,504.653C2871.96,498.804 2848.93,493.117 2825.94,487.464C2823.68,486.909 2804.87,484.824 2807.18,479.896" style="fill:rgb(4,93,88);"/><path d="M2659.66,812.318C2657.08,813.075 2647.16,814.218 2646.36,816.843C2645.95,818.205 2657.83,820.487 2658.86,820.546C2672.3,821.321 2685.49,825.849 2699.13,827.043C2707.33,827.76 2719.95,831.927 2720.52,830.337C2724.98,817.797 2695.39,823.269 2690.98,822.475C2687.26,821.806 2683.36,820.071 2680.15,818.074" style="fill:rgb(4,93,88);"/><path d="M2326.41,206.589C2326.41,206.589 2507.17,403.105 2566.46,474.787C2625.74,546.47 2692.2,611.241 2692.2,611.241C2692.2,611.241 2691.95,694.51 2747.08,749.161L2933.37,661.051L2818.97,529.806C2818.97,529.806 2747.73,422.357 2690.41,331.846C2633.1,241.335 2588.83,183.415 2588.83,183.415L2326.41,206.589Z" style="fill:rgb(255,199,135);"/><path d="M2884.3,900.736C2884.3,900.736 2912.47,896.714 2947.79,881.177C2983.11,865.641 3015.93,844.474 3027.4,812.436L3079.51,809.81C3079.51,809.81 3073.17,858.434 3027.66,894.244C2982.14,930.054 2888.75,949.698 2888.75,949.698L2884.3,900.736Z" style="fill:rgb(48,72,134);"/><path d="M3175.07,686.99C3175.07,686.99 3209.56,694.158 3237.87,707.067C3237.87,707.067 3226.49,752.356 3220.32,777.296C3220.32,777.296 3173.86,761.204 3161.99,761.933C3161.99,761.933 3172.67,704.696 3175.07,686.99Z" style="fill:rgb(125,148,208);"/><path d="M2668.84,675.158C2687.12,677.265 2755.6,651.731 2773.54,646.052C2839.82,625.067 2907.2,606.745 2974.67,590.105C2996.6,584.697 3046.2,566.239 3068.91,575.526C3095.53,586.41 3165.01,642.464 3173.07,670.202C3177.69,686.102 3171.93,706.257 3171.76,722.45C3171.61,738.416 3172.95,765.976 3162.53,779.641C3157.15,786.706 3126.51,791.337 3117.08,794.352C3107.79,797.32 3106.59,808.337 3099.37,813.552C3087.33,822.249 3029.12,821.164 3016.89,812.063C3000.28,799.7 3002.11,759.915 2979.25,754.185C2963.12,750.14 2944.19,757.146 2929.22,762.128C2896.1,773.145 2861.46,781.191 2830.36,797.55C2823.42,801.198 2819.11,808.141 2812.7,812.342C2793.51,824.909 2790.39,831.885 2791.54,853.848C2791.6,855.038 2802.97,863.602 2804.47,864.867C2819.74,877.723 2836.83,892.139 2855.58,899.85C2862.28,902.607 2884.42,889.791 2887.53,892.344C2890.48,894.764 2906.96,948.491 2901.57,952.967C2899.36,954.8 2854.5,964.867 2849.03,966.33C2831.91,970.905 2814.86,974.585 2797.32,977.023C2774.56,980.189 2748.47,987.027 2725.23,984.663C2706.03,982.71 2707.25,978.445 2705.03,960.995C2704.51,956.876 2703.75,950.538 2705.19,946.257C2708.18,937.36 2719.61,929.73 2724.57,921.665C2739.37,897.569 2756.95,867.006 2752.52,836.986C2749.63,817.444 2701.02,810.17 2687.26,796.901C2678.67,788.612 2668.61,719.896 2667.77,710.236L2668.84,675.158ZM2751.26,931.974C2745.04,938.035 2739.77,941.223 2734.72,944.844C2731.61,947.076 2726.56,949.052 2726.05,953.408C2725.73,956.228 2725.79,960.178 2726.47,962.883C2727.84,968.404 2728.24,972.682 2735.31,972.829C2736.86,972.861 2738.42,972.845 2739.97,972.845C2742.38,972.846 2744.21,972.442 2746.49,971.724C2748.91,970.956 2757.45,969.148 2757.3,968.058C2756.82,964.725 2757.53,957.775 2756.79,948.349C2756.36,942.859 2755.82,930.247 2751.26,931.974Z" style="fill:rgb(230,197,61);"/><path d="M2789.15,834.27C2788.35,826.715 2789.33,819.013 2786.33,811.779C2775.82,786.445 2743.01,762.271 2746.16,728.878C2746.8,722.179 2768.12,718.891 2773.42,718.576C2775.88,718.43 2782.17,717.743 2782.46,714.268C2782.67,711.797 2777.39,707.009 2776.15,704.943C2768.88,692.839 2753.93,687.609 2745.13,677.23C2740.46,671.708 2737.68,660.945 2745.51,656.723C2758.62,649.658 2787.07,658.485 2800.7,660.754C2831.76,665.927 2866.93,674.395 2898.23,665.687C2922.38,658.968 2943.3,628.018 2969.37,645.905C2978.92,652.46 2984.24,663.649 2988.56,674.017C2991.1,680.098 2994.51,686.063 2996.26,692.442C2998.39,700.187 2998.55,708.244 3001.31,715.846C3008.79,736.452 3013.61,738.788 3013.04,761.516C3012.91,766.787 3012.66,784.334 3011.88,779.178C3001.34,710.091 2780.54,754.776 2789.15,834.27Z" style="fill:rgb(190,158,24);"/><path d="M2749.24,700.619C2745.31,696.146 2740.98,694.059 2734.99,692.994C2731.21,692.32 2727.02,691.712 2723.12,691.657C2721.23,691.63 2711.92,690.266 2710.54,693.332C2708.43,698 2717.4,704.111 2720.58,706.158C2730.23,712.385 2746.44,723.727 2752.07,705.805" style="fill:rgb(190,158,24);"/><path d="M3019.46,599.598C3018.82,597.128 3011.77,599.39 3010.32,599.732C3000.87,601.949 2986.92,605.701 2995.34,617.252C3005.56,631.255 3026.41,613.653 3018.43,601.277" style="fill:rgb(190,158,24);"/><path d="M3082.77,646.928C3078.05,643.132 3075.18,651.304 3076.91,655.192C3080.47,663.224 3088.74,654.679 3086.97,648.978" style="fill:rgb(190,158,24);"/><path d="M3079.82,684.699C3074.29,684.751 3071.34,696.562 3076.92,698.843C3088.85,703.724 3090.56,687.863 3081.65,682.797" style="fill:rgb(190,158,24);"/><path d="M3039.94,671.486C3037.76,674.687 3036.13,678.235 3034.51,681.745C3032.71,685.64 3027.28,695.248 3028.07,699.7C3028.33,701.172 3032.17,702.643 3033.19,703.777C3038.6,709.778 3044.11,713.843 3047.95,721.303C3053.47,731.987 3050.12,753.029 3049.54,764.973C3049.44,767.192 3048.68,777.981 3054.11,775.852C3057.93,774.354 3063.93,766.646 3063.27,762.666C3062.89,760.329 3058.85,760.571 3057.66,758.654C3056.11,756.143 3056.09,752.461 3055.76,749.603C3053.77,732.146 3058.72,713.557 3053.16,696.596C3051.3,690.907 3044.62,696.996 3042.94,691.929C3041.12,686.424 3048.07,674.245 3042.51,671.611" style="fill:rgb(190,158,24);"/><path d="M2784.89,873.3C2779.22,882.375 2771.86,891.454 2767.28,901.13C2764.88,906.219 2774.6,915.581 2776.67,919.93C2779.62,926.095 2781.68,932.681 2785.68,938.329C2795.2,951.74 2814.25,938.994 2825.21,934.039C2833.89,930.112 2842.71,925.286 2848.67,917.755C2850.48,915.469 2854.05,910.5 2852.07,907.37C2850.05,904.174 2841.56,902.617 2838.2,900.613C2829.34,895.326 2821.89,887.982 2812.63,883.04C2805.62,879.3 2794.52,877.003 2789.53,870.11" style="fill:rgb(190,158,24);"/><path d="M2791.34,846.117C2789.43,843.876 2788.11,841.321 2787.77,838.372C2784.22,807.649 2837.23,781.954 2859.95,771.431C2891.64,756.76 2963.84,732.212 2998.58,748.96C3013.64,756.22 3008.87,777.681 3018.13,789.296C3028.18,801.917 3081.3,797.298 3094.74,793.419C3102.35,791.221 3100.31,774.311 3100.97,768.437C3103.46,746.422 3106.14,723.048 3102.9,700.864C3101.97,694.454 3098.22,679.568 3104.76,674.753C3128.66,657.166 3115.28,743.281 3132.77,747.854C3149.11,752.126 3163.02,743.879 3171.75,731.615C3171.72,747.511 3171.15,768.334 3162.53,779.641C3157.15,786.706 3126.51,791.337 3117.08,794.352C3107.79,797.32 3106.59,808.337 3099.37,813.552C3087.33,822.249 3029.12,821.164 3016.89,812.063C3000.28,799.7 3002.11,759.915 2979.25,754.185C2963.12,750.14 2944.19,757.146 2929.22,762.128C2896.1,773.145 2861.46,781.191 2830.36,797.55C2823.42,801.198 2819.11,808.141 2812.7,812.342C2795.96,823.303 2791.45,830.011 2791.34,846.117Z" style="fill:rgb(190,158,24);"/><path d="M2771.42,739.099C2768.87,747.525 2774.05,763.143 2776.57,772.896C2780.04,786.296 2783.23,800.501 2788.43,813.347C2791.22,820.238 2795.23,831.451 2802.52,835.067C2811.61,839.571 2816.43,831.673 2824.22,832.973C2827.2,833.472 2827.97,837.362 2829.76,839.09C2833.36,842.559 2837.95,843.427 2842.85,842.525C2850.94,841.035 2858.77,836.075 2864.45,830.26C2865.67,829.011 2868.93,821.382 2869.59,821.24C2878.95,819.217 2888.35,826.782 2898.04,823.281C2903.62,821.262 2911.57,817.386 2916.07,813.332C2917.59,811.963 2919.09,804.155 2920.25,803.744C2920.49,803.656 2921.16,804.384 2921.31,804.5C2925.14,807.534 2929.22,810.332 2933.62,812.565C2948.14,819.93 2961.22,807.929 2963.23,793.936C2966.79,769.16 2965.54,743.466 2962.8,718.734C2961.49,706.869 2957.8,691.381 2946.73,684.38C2933.05,675.733 2912.33,684.271 2897.67,684.299C2894.49,684.304 2885.4,684.693 2883.39,688.004C2881.91,690.44 2884.68,693.961 2882.37,696.124C2880.57,697.812 2877.81,697.671 2875.5,698.166C2864.8,700.459 2853.41,696.515 2842.84,698.975C2836.31,700.493 2836.32,708.435 2834.87,708.228C2824.06,706.681 2821.09,707.706 2814.17,710.271C2803.45,714.246 2801.3,720.988 2796.24,723.887C2792.11,726.263 2775.87,724.384 2771.42,739.099Z" style="fill:rgb(255,199,135);"/><path d="M2777.31,740.063C2779.73,736.33 2782.58,736.816 2786.75,736.265C2788.24,736.069 2790.74,735.894 2791.76,734.518C2793.01,732.814 2788.53,729.83 2789.63,727.864C2789.91,727.365 2791.34,730.219 2791.47,730.437C2791.87,731.102 2794.58,733.884 2793.81,734.745C2793.23,735.396 2791.52,735.38 2790.7,735.544C2789.14,735.857 2787.84,736.956 2786.3,737.368C2784.41,737.872 2781.55,737.543 2780,738.835" style="fill:rgb(255,171,101);"/><path d="M2811.53,723.776C2812.73,720.167 2819.41,718.85 2822.57,718.277C2823.68,718.076 2825.38,718.268 2826.23,717.371C2826.7,716.876 2825.78,715.917 2825.54,715.54C2824.69,714.243 2823.88,712.688 2822.82,711.566C2822.4,711.131 2821.41,710.337 2821.9,709.621C2822.29,709.063 2824.39,710.086 2824.78,710.307C2826.36,711.193 2832.62,713.862 2830.78,716.48C2829.43,718.393 2826.4,719.567 2824.31,720.249C2820.48,721.497 2815.71,722.295 2812.31,724.468" style="fill:rgb(255,171,101);"/><path d="M2849.52,710.918C2851.18,709.208 2853.5,708.167 2855.64,707.218C2857.08,706.581 2858.53,706.046 2860.03,705.548C2861.39,705.095 2862.87,704.877 2864.3,704.717C2864.36,704.709 2865.6,704.406 2865.6,704.742C2865.6,705.924 2862.55,706.789 2861.75,707.146C2858.29,708.693 2855.26,711.981 2851.33,711.436" style="fill:rgb(255,171,101);"/><path d="M2843.7,698.789L2843.76,698.842C2849.5,703.958 2867.01,712.6 2874.34,715.357C2880.23,717.57 2886.78,718.254 2891.81,722.264C2894.11,724.093 2895.58,731.06 2896.2,733.842C2898.64,744.609 2902.24,755.162 2902.23,766.33C2902.23,771.67 2903.34,784.219 2900.56,789.168C2899.18,791.622 2896.22,792.051 2893.77,792.825C2888.17,794.593 2869.98,801.622 2866.26,793.256C2863.38,786.769 2863.14,778.844 2861.39,771.931C2858.6,760.931 2854.94,750.088 2851.92,739.136C2851.46,737.452 2846.99,722.578 2844.93,723.011C2843.58,723.294 2844.21,727.11 2844.25,727.971C2844.5,733.377 2846.49,738.644 2848.39,743.659C2853.74,757.764 2858.63,773.363 2858.63,788.623C2858.63,793.644 2859.62,801.217 2854.42,804.295C2850.92,806.368 2846.9,807.533 2842.91,808.094C2813.43,812.227 2816.98,783.28 2812.93,761.753C2811.74,755.44 2810.07,748.351 2807.58,742.44C2807.05,741.174 2805.51,737.426 2803.6,737.73C2799.92,738.321 2804.41,754.797 2805.07,756.789C2810.14,771.99 2812.81,786.563 2814.82,802.38C2815.76,809.727 2817.64,817.817 2808.14,819.079C2801.95,819.902 2799.18,809.463 2797,805.426C2793.67,799.25 2788.79,793.957 2785.61,787.686C2782.55,781.661 2781.54,774.809 2778.66,768.698C2777.46,766.139 2775.4,762.875 2772.74,761.013C2774.14,764.994 2775.55,768.956 2776.57,772.896C2780.04,786.296 2783.23,800.501 2788.43,813.347C2791.22,820.238 2795.23,831.451 2802.52,835.067C2811.61,839.571 2816.43,831.673 2824.22,832.973C2827.2,833.472 2827.97,837.362 2829.76,839.09C2833.36,842.559 2837.95,843.427 2842.85,842.525C2850.94,841.035 2858.77,836.075 2864.45,830.26C2865.67,829.011 2868.93,821.382 2869.59,821.24C2878.95,819.217 2888.35,826.782 2898.04,823.281C2903.62,821.262 2911.57,817.386 2916.07,813.332C2917.59,811.963 2919.09,804.155 2920.25,803.744C2920.49,803.656 2921.16,804.384 2921.31,804.5C2925.14,807.534 2929.22,810.332 2933.62,812.565C2948.14,819.93 2961.22,807.929 2963.23,793.936C2966.79,769.16 2965.54,743.466 2962.8,718.734C2961.49,706.869 2957.8,691.381 2946.73,684.38C2933.05,675.733 2912.33,684.271 2897.67,684.299C2894.49,684.304 2885.4,684.693 2883.39,688.004C2881.91,690.44 2884.68,693.961 2882.37,696.124C2880.57,697.812 2877.81,697.671 2875.5,698.166C2865.09,700.397 2854.03,696.724 2843.7,698.789Z" style="fill:rgb(255,171,101);"/><path d="M2784.6,543.206C2768.96,549.125 2755.31,560.835 2745.74,574.572C2738.41,585.087 2732.19,596.484 2729.6,609.113C2727.12,621.223 2729.33,630.895 2734.14,642.211C2754.69,690.549 2812.93,693.458 2858.61,700.931C2874.19,703.478 2892.68,704.74 2904.61,716.69C2932.56,744.681 2897.82,786.217 2955.16,825.558C2960.22,829.029 2985.24,835.077 2989.19,829.928C2999.07,817.041 2988.43,740.407 2988.42,720.441C2988.41,696.328 2987.06,673.381 2980.93,649.641C2971.91,614.708 2909.66,582.505 2882.74,565.664C2866.51,555.51 2833.34,527.67 2813.97,527.422" style="fill:rgb(255,199,135);"/><path d="M2730.32,631.461C2747.22,644.31 2767.77,657.998 2787.59,665.379C2822.34,678.325 2858.2,683.912 2895.29,684.632C2904.03,684.802 2913.8,684.675 2921.02,678.91C2921.63,678.424 2927.54,668.573 2927.66,668.635C2930.24,670.047 2926.02,678.056 2925.38,679.372C2922.45,685.383 2909.54,698.052 2912.73,704.539C2917.1,713.443 2933.02,702.93 2938.65,702.491C2940.32,702.36 2946.44,701.336 2947.33,703.338C2948.45,705.888 2942.88,708.695 2941.06,709.129C2935.09,710.555 2922.42,710.665 2921.07,718.944C2919.99,725.514 2931.81,732.595 2934.51,738.854C2942.78,757.999 2927.11,771.559 2944.8,792.133C2947.9,795.741 2952,798.562 2954.98,802.16C2956.98,804.579 2959.72,806.201 2961.68,808.678C2963.93,811.522 2975.28,818.385 2975.84,812.553C2975.22,812.123 2974.66,811.636 2974.19,811.082C2972.53,809.159 2971.7,802.554 2971.27,795.508C2967.85,785.636 2964.34,775.126 2967.37,766.798C2971.25,756.11 2998.36,769.878 2982.82,767.614C2980.75,767.313 2976.59,765.32 2974.53,766.174C2970.6,767.804 2970.85,772.833 2970.85,776.312C2970.84,779.483 2970.81,787.762 2971.27,795.508C2973.19,801.034 2975.08,806.36 2975.78,810.992C2975.87,811.591 2975.89,812.109 2975.84,812.553C2980,815.412 2987.15,815.737 2992.85,816.169C2992.24,822.559 2991.1,827.436 2989.19,829.928C2985.24,835.077 2960.22,829.029 2955.16,825.558C2897.82,786.217 2932.56,744.681 2904.61,716.69C2892.68,704.74 2874.19,703.478 2858.61,700.931C2812.93,693.458 2754.69,690.549 2734.14,642.211C2732.56,638.499 2731.27,634.964 2730.32,631.461Z" style="fill:rgb(255,171,101);"/><path d="M2654.09,680.329C2654.09,680.329 2536.2,704.867 2498.92,710.292C2461.64,715.718 2409.97,738.552 2409.97,738.552C2409.97,738.552 2400.52,795.746 2428.81,817.456C2428.81,817.456 2651.41,779.549 2671.08,778.67L2654.09,680.329Z" style="fill:rgb(67,101,188);"/><path d="M2616.69,687.999C2614.97,696.668 2612.22,705.439 2612.98,713.724C2614.13,726.359 2624.25,748.004 2618.67,758.821C2612.77,770.255 2586.84,777.863 2579.88,763.288C2575.21,753.513 2579.28,740.09 2570.94,731.953C2567.5,728.591 2559,728.917 2554.9,730.918C2545.74,735.391 2551.69,758.935 2549.84,767.493C2548.03,775.887 2535.13,779.637 2527.89,780.904C2515.39,783.087 2503.33,779.935 2498.43,767.565C2495.45,760.042 2497.5,734.57 2478.87,741.832C2456.16,750.686 2493.24,781.452 2463.97,790.395C2461.34,791.2 2459.87,791.495 2456.95,791.107C2436.97,788.45 2441.91,750.968 2434.68,738.015C2433.26,735.46 2430.94,733.071 2428.14,731.099C2417.17,735.37 2409.97,738.552 2409.97,738.552C2409.97,738.552 2400.52,795.746 2428.81,817.456C2428.81,817.456 2651.41,779.549 2671.08,778.67L2654.09,680.329C2654.09,680.329 2638.42,683.591 2616.69,687.999Z" style="fill:rgb(48,72,134);"/><path d="M2643.31,674.117C2643.31,674.117 2665.73,666.258 2680.45,667.454L2698.79,803.148C2698.79,803.148 2673.63,805.274 2665.57,805.172C2657.51,805.07 2643.58,734.243 2643.31,674.117Z" style="fill:rgb(190,158,24);"/><path d="M2649.55,672.157C2648.81,676.413 2649.68,681.625 2654.1,683.108C2655.41,683.546 2656.87,683.661 2658.38,683.585C2659.31,683.458 2660.25,683.353 2661.19,683.263C2663.62,682.856 2666.03,682.178 2668.07,681.744C2670.32,681.265 2672.61,681.12 2674.86,680.695C2675.09,680.653 2676.91,680.122 2677.03,680.556C2677.19,681.102 2675.9,681.496 2675.61,681.589C2673.49,682.26 2671.16,682.538 2668.95,682.694C2666.45,682.871 2663.81,683.01 2661.19,683.263C2660.25,683.421 2659.3,683.539 2658.38,683.585C2656.64,683.821 2654.93,684.132 2653.3,684.563C2652.29,684.829 2648.9,685.417 2648.53,686.695C2647.99,688.579 2651.42,692.704 2652.51,694.038C2656.11,698.418 2658.68,696.712 2663.71,695.594C2667.09,694.842 2670.51,694.275 2673.96,694.02C2675.84,693.88 2677.83,693.574 2679.73,693.731C2680.05,693.757 2681.6,694.048 2681.56,694.647C2681.52,695.151 2680.31,695.452 2679.97,695.574C2678.1,696.246 2676.15,696.307 2674.21,696.648C2667.49,697.83 2660.67,699.107 2654.07,700.85C2652.43,701.282 2648.49,702.079 2648.7,704.504C2648.8,705.559 2649.77,706.679 2650.24,707.609C2651.18,709.465 2652.83,712.447 2655,713.119C2656.88,713.701 2659.61,712.918 2661.4,712.399C2665.06,711.339 2668.68,710.274 2672.42,709.542C2675.12,709.012 2677.89,708.66 2680.63,708.39C2680.88,708.365 2682.91,708.158 2682.94,708.768C2682.97,709.378 2681.49,710.068 2681.1,710.271C2679.21,711.269 2677.31,712.214 2675.23,712.77C2669.63,714.269 2663.62,714.677 2658.17,716.606C2655.89,717.414 2653.15,718.966 2653.07,721.689C2653.01,723.599 2653.74,725.05 2654.25,726.834C2654.77,728.679 2654.88,731.098 2656.35,732.523C2658.86,734.959 2665.35,733.121 2668.19,732.514C2671.47,731.813 2674.76,731.118 2678.06,730.579C2679.18,730.397 2680.28,730.305 2681.4,730.166C2681.91,730.102 2683.12,729.418 2682.93,729.904C2682.77,730.333 2681.61,730.781 2681.24,730.943C2679.31,731.794 2677.48,732.689 2675.48,733.403C2670.12,735.319 2664.53,736.145 2659.43,738.751C2658.14,739.413 2656.19,740.175 2655.53,741.629C2654.49,743.912 2655.82,747.085 2656.44,749.274C2657.06,751.492 2657.86,753.814 2659.55,755.484C2661.53,757.434 2664.62,756.613 2666.91,755.872C2672.37,754.107 2677.68,752.015 2683.2,750.361C2685.45,749.688 2687.88,748.953 2690.24,748.888C2690.26,748.887 2690.88,748.892 2691.46,748.927L2691.63,750.152C2689.82,751.762 2686.76,752.447 2684.72,753.157C2677.82,755.55 2670.61,757.445 2664.05,760.683C2662.46,761.47 2656.03,763.962 2656.54,766.576C2656.86,768.227 2661.99,767.786 2663.06,767.729C2670.27,767.345 2677.2,764.558 2684.35,763.894C2686.47,763.696 2688.62,763.754 2690.76,763.754C2690.98,763.754 2692.67,763.61 2692.67,764.18C2692.67,764.796 2691.55,765.136 2691.12,765.311C2689.39,765.998 2687.68,766.715 2685.87,767.142C2679.94,768.541 2674.12,769.962 2668.3,771.761C2667.01,772.16 2663.27,773.038 2662.88,774.668C2662.53,776.113 2663.08,777.601 2663.26,779.02C2663.49,780.808 2663.51,782.796 2664.36,784.426C2665.99,787.564 2669.72,786.821 2672.56,786.011C2675.43,785.191 2678.41,785.069 2681.28,784.207C2683.9,783.417 2686.99,781.803 2689.86,782.478C2690.16,782.549 2689.41,782.909 2689.17,783.091C2688.66,783.461 2688.06,783.695 2687.51,784.013C2686.16,784.81 2684.53,785.102 2683.05,785.594C2677.83,787.33 2672.97,788.107 2667.54,788.749C2666.41,788.883 2663.48,790.009 2663.84,791.712C2664.77,796.1 2671.72,794.673 2674.6,794.191C2680.02,793.284 2684.94,790.997 2690.26,789.991C2692.32,789.599 2694.64,789.509 2696.96,789.665L2698.79,803.148C2698.79,803.148 2673.63,805.274 2665.57,805.172C2657.51,805.07 2643.58,734.243 2643.31,674.117C2643.31,674.117 2645.75,673.261 2649.55,672.157Z" style="fill:rgb(160,133,20);"/><path d="M2412.19,749.024C2413.19,741.325 2398.31,746.632 2394.14,746.811C2390.07,746.987 2385.54,745.116 2381.67,745.72C2378.92,746.148 2377.25,748.856 2374.62,749.409C2371.64,750.039 2368.6,748.454 2365.68,748.856C2362.61,749.279 2361.53,752.587 2358.95,753.5C2355.9,754.582 2352.42,753.405 2349.3,754.206C2346.82,754.846 2345.42,756.899 2342.64,757.556C2333.98,759.606 2326.08,760.126 2317.3,763.8C2312.68,765.732 2309.25,770.191 2304.76,771.842C2299.72,773.699 2294.02,772.933 2288.84,775.105C2285.54,776.49 2283.04,779.699 2279.84,780.864C2274.07,782.963 2267.8,782.957 2261.93,785.604C2260.26,786.354 2256.7,789.88 2254.91,789.896C2250.23,789.939 2244.75,787.179 2240.12,788.815C2237.82,789.627 2234.96,793.908 2233.32,794.708C2231.26,795.709 2228.86,793.371 2226.85,794.222C2225.43,794.821 2226.65,799.317 2225.51,799.765C2222.18,801.069 2218.53,799.8 2215.14,801.2C2211.79,802.583 2213.78,806.325 2212.06,808.187C2205.95,814.802 2203.93,821.655 2207.91,831.131C2215.06,848.135 2226.71,871.913 2247.17,875.008C2249.76,875.4 2250.89,868.07 2252.52,866.4C2255.02,863.832 2259.31,868.458 2261.97,867.691C2264.62,866.926 2264.48,862.812 2268.61,862.402C2273.22,861.944 2278.19,864.108 2282.63,863.432C2285.52,862.993 2284.83,859.577 2287.71,859.272C2292.02,858.815 2296.8,860.658 2300.99,858.983C2305.45,857.198 2307.16,852.746 2310.85,851.03C2315.55,848.845 2320.91,851.937 2325.98,849.336C2329.06,847.756 2328.65,843.551 2331.09,842.403C2334.71,840.697 2338.95,842.511 2342.39,840.06C2344.05,838.879 2343.59,834.645 2345.1,834.17C2350.01,832.625 2355.41,836.342 2360.26,834.438C2363.51,833.159 2360.62,828.461 2364.51,828.38C2368.95,828.288 2376.01,833.643 2380.15,831.332C2384.02,829.167 2380.22,822.395 2383.78,820.261C2387.65,817.943 2393.42,822.141 2397.65,821.717C2400.31,821.45 2398.65,817.196 2400.82,816.927C2403.64,816.578 2406.82,819.134 2409.74,819.322C2410.89,819.395 2428.51,813.395 2428.64,813.266C2431.77,810.096 2430.43,802.529 2429.76,798.716C2427.74,787.167 2424.37,775.831 2422.35,764.406" style="fill:rgb(48,72,134);"/><path d="M2212.46,807.602C2212.35,807.812 2212.22,808.008 2212.06,808.187C2211.6,808.678 2211.17,809.171 2210.76,809.667C2211.73,813.207 2212.51,816.856 2213.75,819.829C2214.81,822.378 2225.35,850.623 2232.34,845.887C2234.32,844.545 2229.45,837.499 2228.75,836.093C2224.02,826.603 2217.62,818.009 2212.83,808.378C2212.72,808.152 2212.59,807.891 2212.46,807.602ZM2217.58,800.585C2219.96,803.665 2222.01,808.74 2222.7,810.479C2227.57,822.854 2235.07,832.087 2245.73,839.62C2248.52,841.592 2257.35,849.397 2260.99,844.461C2264.7,839.418 2256.2,833.016 2253.17,830.071C2243.75,820.884 2236.23,815.82 2232.52,802.606C2232.09,801.069 2230.64,797.499 2230.15,794.548C2229.01,794.188 2227.88,793.786 2226.85,794.222C2225.43,794.821 2226.65,799.317 2225.51,799.765C2222.97,800.76 2220.24,800.257 2217.58,800.585ZM2238.31,789.969C2236.95,791.132 2235.56,792.816 2234.43,793.868C2237.34,796.702 2240.75,800.468 2240.78,800.495C2248.82,809.348 2255.86,819.161 2263.77,828.184C2264.71,829.253 2269.49,835.494 2271.72,834.127C2273.59,832.981 2263.7,823.08 2262.91,822.286C2253.91,813.233 2248.9,801.58 2240.27,792.286C2240.08,792.075 2239.27,791.171 2238.31,789.969ZM2246.52,788.585L2246.66,788.763C2255.32,799.546 2265.54,809.608 2275.41,819.28C2277.69,821.516 2285.93,831.205 2290.47,827.822C2294.85,824.564 2285.21,819.185 2283.6,817.965C2274,810.665 2261.55,803.741 2257.95,791.273C2257.77,790.645 2257.53,789.804 2257.31,788.842C2256.39,789.447 2255.54,789.891 2254.91,789.896C2252.27,789.921 2249.38,789.052 2246.52,788.585ZM2288.45,775.277C2285.34,776.739 2282.91,779.745 2279.84,780.864C2275.57,782.417 2271.03,782.818 2266.57,783.993C2266.74,784.303 2266.9,784.577 2267.03,784.801C2273.69,795.989 2282.13,806.787 2292.93,814.244C2294.7,815.469 2303.31,823.689 2306.11,821.291C2308.06,819.617 2304.68,813.34 2303.99,811.534C2299.78,800.506 2292.31,790.119 2289.13,778.8C2288.94,778.115 2288.67,776.827 2288.45,775.277ZM2313.22,766.209C2310.42,768.26 2307.84,770.711 2304.76,771.842C2302.14,772.806 2299.35,773.063 2296.54,773.391C2296.7,774.079 2296.81,774.631 2296.9,774.962C2300.08,787.305 2302.3,799.247 2312.43,807.992C2314.85,810.078 2317.53,814.007 2321.25,812.93C2324.41,812.018 2323.78,805.992 2323.91,803.405C2324.45,792.519 2315.54,784.574 2313.65,774.525C2313.56,774.069 2313.05,769.787 2313.22,766.209ZM2329.6,760.156C2325.78,760.944 2321.95,761.92 2317.94,763.536C2319.61,766.364 2320.91,771.103 2321.74,773.046C2325.48,781.856 2327.28,791.511 2331.81,799.978C2332.59,801.445 2335.96,812.107 2338.42,811.763C2341.29,811.362 2339.55,799.074 2339.27,797.552C2337.01,785.279 2333.69,772.098 2329.6,760.156ZM2362.26,750.861C2361.23,751.893 2360.3,753.023 2358.95,753.5C2356.51,754.366 2353.79,753.785 2351.21,753.929C2351.39,754.935 2351.58,755.863 2351.81,756.652C2355.2,768.244 2360.56,778.789 2365.37,789.827C2367.52,794.777 2372.55,806.22 2380.11,805.302C2385.54,804.643 2380.57,793.594 2379.58,791.278C2374.15,778.597 2366,767.11 2362.79,753.467C2362.59,752.619 2362.41,751.748 2362.26,750.861ZM2367.14,748.801C2367.28,753.101 2367.52,757.241 2368.24,760.537C2370.83,772.271 2376.87,783.567 2382.53,794.111C2384.07,796.976 2387.52,803.503 2389.51,800.931C2392.73,796.764 2388.94,788.732 2387.38,784.649C2383.16,773.587 2377.66,760.784 2376.11,748.849C2375.64,749.099 2375.15,749.298 2374.62,749.409C2372.13,749.935 2369.6,748.917 2367.14,748.801ZM2344.69,756.744C2344.08,757.082 2343.41,757.373 2342.64,757.556C2340.08,758.163 2337.58,758.636 2335.11,759.096C2338.81,769.249 2342.16,779.707 2347.35,789.09C2348.24,790.71 2354.13,802.175 2357.91,799.691C2359.82,798.429 2357.58,790.95 2357.27,789.354C2355.19,778.603 2347.58,769.87 2345.19,758.94C2345.05,758.285 2344.87,757.545 2344.69,756.744ZM2398.34,746.105C2398.68,756.543 2398.99,766.406 2402.52,776.922C2404.59,783.113 2408.54,788.97 2412.44,794.17C2412.78,794.615 2415.83,798.969 2416.68,797.404C2420.18,791.004 2418.32,778.915 2418.32,771.826C2418.32,767.557 2418.5,763.155 2418.6,758.728L2412.19,749.024C2412.96,743.078 2404.26,744.889 2398.34,746.105ZM2383.02,745.604C2385.13,758.232 2385.12,769.683 2390.72,782.026C2391.33,783.379 2396.57,796.839 2398.87,796.125C2401,795.461 2399.99,784.228 2399.99,782.743C2400,770.653 2395.58,758.927 2394.18,746.809L2394.14,746.811C2390.54,746.967 2386.57,745.517 2383.02,745.604Z" style="fill:rgb(67,101,188);"/><path d="M2207.84,821.09C2207.84,821.09 2076.12,899.584 2029.44,968.466L2042.8,1034.49C2042.8,1034.49 2157.97,923.963 2238.91,868.137L2207.84,821.09Z" style="fill:rgb(67,101,188);"/><path d="M2213.89,830.255C2208.51,837.699 2217.49,851.269 2216.47,860.065C2215.28,870.284 2205.15,877.312 2197.6,883.071C2169.5,904.486 2140.73,925.19 2112.9,946.953C2092.72,962.738 2073.89,980.273 2053.46,995.728C2047.92,999.923 2042.74,1004.59 2037.73,1009.43L2042.8,1034.49C2042.8,1034.49 2155.61,926.228 2236.4,869.88C2236.93,868.817 2237.44,867.747 2237.95,866.67L2213.89,830.255Z" style="fill:rgb(48,72,134);"/><path d="M3070.61,220.022C3048.56,229.458 3023.32,278.326 3011.8,298.048C2990.52,334.518 2971.48,368.833 2956.5,408.343C2953.03,417.474 2944.23,441.401 2952.69,450.362C2964.81,463.194 2994.16,455.275 3008.66,452.848C3021.03,450.776 3033.57,448.179 3045.47,444.107C3084.48,430.765 3140.74,420.106 3168.86,388.097C3190.94,362.953 3207.62,329.315 3227.79,302.281C3240.51,285.236 3249.17,267.508 3259.57,245.525C3260.89,242.73 3271.64,232.49 3267.41,228.582C3250.71,213.18 3174.7,219.049 3153.25,219.856C3128.76,220.777 3093.85,212.472 3070.61,220.022Z" style="fill:rgb(3,77,73);"/><path d="M3034.59,434.959C3029.03,436.234 3023.44,437.304 3017.87,438.261C3003.76,440.688 2975.18,448.607 2963.39,435.774C2955.15,426.814 2963.72,402.887 2967.09,393.756C2981.68,354.246 3000.21,319.931 3020.93,283.46C3024.04,277.987 3028.18,270.27 3033,261.777C3044.49,243.514 3058.07,225.389 3070.61,220.022C3092.56,212.889 3124.94,219.908 3149.1,219.928C3129.21,262.152 3078.74,368.06 3052.08,412.984C3046.85,421.788 3040.91,429.02 3034.59,434.959ZM3162.34,219.432C3189.67,218.067 3247.04,215.182 3265.1,226.817C3263.71,228.608 3262.51,230.104 3262.13,230.937C3252,252.921 3243.57,270.649 3231.19,287.694C3211.56,314.727 3195.32,348.365 3173.82,373.51C3151.79,399.28 3111.99,411.212 3077.5,421.846C3072.04,384.519 3139.64,259.952 3162.34,219.432Z" style="fill:rgb(4,93,88);"/></g><g transform="matrix(0.999297,0,0,0.999297,-1.66913,0.144597)"><path d="M2918.14,1005.95C2914.47,1037.56 2921.17,1067.95 2913.67,1099.93C2879.48,1245.66 2738.4,1565.65 2816.99,1704.55C2860.6,1781.63 2943.78,1794.06 3008.14,1844.43C3070.2,1893.01 3105.74,1959.61 3159.1,2014.56C3173.23,2029.11 3354.63,2250.07 3378.82,2173.32C3404.56,2091.61 3172.95,1756.37 3124.17,1671.3C3088.95,1609.87 3058.81,1544.61 3038.89,1477.07C3023.19,1423.81 3000.95,1366.3 2997.74,1310.66C2996.85,1295.35 2997.43,1279.84 2997.43,1264.51C2997.43,1255.14 2997.43,1245.77 2997.43,1236.4C2997.43,1226.12 2997.39,1216.34 2998.65,1206.21C2998.97,1203.57 2998.81,1200.89 2999.17,1198.25C3007.85,1134.26 3050.39,1029.31 2982.89,987.376C2965.32,976.457 2947.83,977.294 2933.89,992.546" style="fill:url(#_Linear4);"/></g><g transform="matrix(0.999297,0,0,0.999297,-1.66913,0.144597)"><path d="M2948.49,613.636C2874.07,612.116 2802.97,622.763 2729.26,631.133C2641.09,641.145 2553.34,649.353 2466.87,670.381C2425.03,680.555 2384.05,694.14 2343.25,707.817C2339.23,709.165 2311.3,716.772 2315.16,725.453C2321.62,739.971 2454.33,717.116 2474.99,714.906C2617.52,699.665 2765.89,694.3 2906.6,666.581C2929.24,662.121 3063.92,644.366 3048.84,624.932C3039.64,613.081 3019.2,613.931 3005.97,613.526" style="fill:url(#_Linear5);"/></g><g transform="matrix(0.999297,0,0,0.999297,-1.66913,0.144597)"><path d="M2433.8,960.057C2407.41,958.656 2280.73,985.859 2263.25,1000.35C2261.01,1002.21 2269.03,1001.03 2271.93,1001.1C2283.24,1001.36 2294.55,999.335 2305.91,999.289C2335.48,999.171 2356.12,1006.99 2375.39,1029.07C2396.05,1052.74 2384.66,1088.76 2404.93,1111.92C2409.7,1117.38 2420.4,1119.23 2426.81,1121.48C2482.32,1140.95 2520.29,1106.37 2569.31,1120.67C2593.64,1127.78 2623.01,1184.64 2642.33,1167.48C2673.86,1139.45 2632.48,1106.17 2613.2,1091.11C2589.69,1072.73 2581.04,1058.74 2553.91,1041.85C2527.61,1025.48 2506.95,1003.68 2479.86,988.994C2467.16,982.108 2444.56,969.468 2433.8,960.057Z" style="fill:url(#_Linear6);"/></g><g transform="matrix(0.999297,0,0,0.999297,-1.66913,0.144597)"><path d="M2611.54,1110.42C2571.69,1112.11 2624.26,1209.28 2631.35,1223.12C2633.95,1228.21 2643.01,1248.98 2651.22,1248.64C2661.64,1248.21 2660.46,1209.45 2659.94,1203.71C2657.28,1174.17 2656.41,1111.74 2614.61,1107.44" style="fill:url(#_Linear7);"/></g><g transform="matrix(0.999297,0,0,0.999297,-1.66913,0.144597)"><path d="M2996.26,125.922C2967.84,188.376 2941.72,250.739 2912.15,312.909C2889.76,359.976 2856.51,396.906 2830.3,441.112C2771.73,539.914 2832.46,545.447 2912.38,544.471C2951.95,543.987 3005.43,546.651 3040.7,524.6C3102,486.275 3115.17,267.493 3064.74,218.224C3044.88,198.823 3013.24,201.906 2988.24,201.9" style="fill:url(#_Linear8);"/></g><g transform="matrix(0.999297,0,0,0.999297,-1.66913,0.144597)"><path d="M2314.08,1822.17C2315.82,1919.68 2525.78,1930.66 2550.74,1992.57C2554.1,2000.89 2483.91,2001.82 2478.84,2001.31C2423.61,1995.77 2337.23,1927.41 2325.76,1870.6" style="fill:url(#_Linear9);"/></g></g></g><g transform="matrix(0.528887,0,0,0.528887,2014.96,40.8647)"><g transform="matrix(0.911529,0,0,0.756938,1.7123,-165.709)"><path d="M1723.04,926.416C1723.04,879.144 1691.17,840.765 1651.91,840.765L335.07,840.765C295.815,840.765 263.945,879.144 263.945,926.416L263.945,1570.03C263.945,1617.3 295.815,1655.68 335.07,1655.68L1651.91,1655.68C1691.17,1655.68 1723.04,1617.3 1723.04,1570.03L1723.04,926.416Z" style="fill:white;fill-opacity:0.67;"/></g><g transform="matrix(0.932776,0,0,0.819573,72.7296,227.035)"><rect x="302.838" y="756.384" width="1188.05" height="10.572" style="fill:rgb(19,79,123);"/></g><g transform="matrix(1.57935,0,0,1.57935,-135.541,-720.124)"><path d="M318.551,974.143L1011.12,974.143L1011.12,826.352C1004.1,823.876 996.622,823.491 989.913,827.793C970.936,839.964 954.499,862.22 943.581,881.658C926.69,911.731 912.856,946.149 870.937,938.351C825.793,929.954 798.044,861.941 752.101,869.673C702.72,877.983 685.641,949.426 627.662,933.256C587.377,922.02 561.463,887.553 533.384,858.976C514.483,839.74 497.88,819.727 468.248,822.25C416.278,826.675 377.818,886.253 349.861,923.797C342.153,934.149 325.242,957.067 318.551,974.143Z" style="fill:rgb(19,79,123);fill-opacity:0.17;"/></g><g transform="matrix(1.76761,0,0,1.76761,-356.4,-842.845)"><circle cx="1028.52" cy="811.041" r="9.681" style="fill:rgb(19,79,123);"/></g><g transform="matrix(1.56845,0,0,1.56845,452.625,-507.177)"><path d="M600.67,737.627L600.67,734.595C602.076,734.533 603.061,734.439 603.623,734.314C604.519,734.116 605.248,733.72 605.811,733.127C606.196,732.72 606.488,732.179 606.686,731.502C606.8,731.095 606.858,730.793 606.858,730.595L610.561,730.595L610.561,753.252L605.998,753.252L605.998,737.627L600.67,737.627Z" style="fill:rgb(20,79,123);fill-rule:nonzero;"/></g><g transform="matrix(1.56845,0,0,1.56845,452.625,-507.177)"><path d="M625.061,750.189C626.384,750.189 627.251,749.499 627.662,748.119C628.074,746.739 628.279,744.746 628.279,742.142C628.279,739.413 628.074,737.392 627.662,736.08C627.251,734.767 626.384,734.111 625.061,734.111C623.738,734.111 622.863,734.767 622.436,736.08C622.009,737.392 621.795,739.413 621.795,742.142C621.795,744.746 622.009,746.739 622.436,748.119C622.863,749.499 623.738,750.189 625.061,750.189ZM632.873,742.142C632.873,745.882 632.292,748.762 631.131,750.783C629.97,752.804 627.946,753.814 625.061,753.814C622.175,753.814 620.152,752.804 618.99,750.783C617.829,748.762 617.248,745.882 617.248,742.142C617.248,738.403 617.829,735.517 618.99,733.486C620.152,731.455 622.175,730.439 625.061,730.439C627.946,730.439 629.97,731.455 631.131,733.486C632.292,735.517 632.873,738.403 632.873,742.142Z" style="fill:rgb(20,79,123);fill-rule:nonzero;"/></g><g transform="matrix(1.56845,0,0,1.56845,452.625,-507.177)"><path d="M642.858,750.189C644.18,750.189 645.048,749.499 645.459,748.119C645.871,746.739 646.076,744.746 646.076,742.142C646.076,739.413 645.871,737.392 645.459,736.08C645.048,734.767 644.18,734.111 642.858,734.111C641.535,734.111 640.66,734.767 640.233,736.08C639.805,737.392 639.592,739.413 639.592,742.142C639.592,744.746 639.805,746.739 640.233,748.119C640.66,749.499 641.535,750.189 642.858,750.189ZM650.67,742.142C650.67,745.882 650.089,748.762 648.928,750.783C647.766,752.804 645.743,753.814 642.858,753.814C639.972,753.814 637.949,752.804 636.787,750.783C635.626,748.762 635.045,745.882 635.045,742.142C635.045,738.403 635.626,735.517 636.787,733.486C637.949,731.455 639.972,730.439 642.858,730.439C645.743,730.439 647.766,731.455 648.928,733.486C650.089,735.517 650.67,738.403 650.67,742.142Z" style="fill:rgb(20,79,123);fill-rule:nonzero;"/></g><g transform="matrix(1.56845,0,0,1.56845,452.625,-507.177)"><path d="M662.764,730.298L667.139,730.298L667.139,742.705L672.686,736.298L678.201,736.298L672.248,742.814L678.436,753.252L673.061,753.252L668.983,745.97L667.139,747.892L667.139,753.252L662.764,753.252L662.764,730.298Z" style="fill:rgb(20,79,123);fill-rule:nonzero;"/></g><g transform="matrix(1.56845,0,0,1.56845,452.625,-507.177)"><path d="M703.842,737.814C704.321,738.408 704.644,739.137 704.811,740.002C704.915,740.574 704.967,741.413 704.967,742.517L704.936,753.252L700.373,753.252L700.373,742.408C700.373,741.762 700.269,741.231 700.061,740.814C699.665,740.022 698.936,739.627 697.873,739.627C696.644,739.627 695.795,740.137 695.326,741.158C695.087,741.699 694.967,742.351 694.967,743.111L694.967,753.252L690.483,753.252L690.483,743.111C690.483,742.101 690.378,741.366 690.17,740.908C689.795,740.085 689.061,739.673 687.967,739.673C686.696,739.673 685.842,740.085 685.404,740.908C685.165,741.377 685.045,742.074 685.045,743.002L685.045,753.252L680.529,753.252L680.529,736.252L684.858,736.252L684.858,738.736C685.41,737.851 685.93,737.22 686.42,736.845C687.285,736.179 688.404,735.845 689.779,735.845C691.081,735.845 692.134,736.132 692.936,736.705C693.581,737.236 694.071,737.918 694.404,738.752C694.988,737.752 695.712,737.017 696.576,736.548C697.493,736.08 698.514,735.845 699.639,735.845C700.389,735.845 701.128,735.991 701.858,736.283C702.587,736.574 703.248,737.085 703.842,737.814Z" style="fill:rgb(20,79,123);fill-rule:nonzero;"/></g><g transform="matrix(1.01613,0,0,1.01613,47.0381,39.3624)"><rect x="1064.59" y="879.017" width="61.176" height="13.344" style="fill:rgb(19,79,123);"/></g><g transform="matrix(1.01613,0,0,1.01613,47.0381,68.3327)"><rect x="1064.59" y="879.017" width="61.176" height="13.344" style="fill:rgb(19,79,123);"/></g><g transform="matrix(3.6913,0,0,3.6913,-3387.46,-2350.5)"><g transform="matrix(1.10735,0,0,1.10735,-137.219,-91.4832)"><path d="M1266.77,899.152C1267.59,899.048 1268.19,898.861 1268.57,898.59C1269.22,898.111 1269.55,897.282 1269.55,896.105C1269.55,895.209 1269.24,894.501 1268.63,893.98C1268.27,893.678 1267.64,893.366 1266.77,893.043L1266.77,899.152ZM1265.29,882.824C1264.38,882.845 1263.71,883.087 1263.27,883.551C1262.83,884.014 1262.61,884.647 1262.61,885.449C1262.61,886.324 1262.94,887.017 1263.6,887.527C1263.96,887.808 1264.53,888.069 1265.29,888.308L1265.29,882.824ZM1266.8,905.777L1265.29,905.777L1265.29,902.668C1263.23,902.439 1261.7,901.991 1260.69,901.324C1258.91,900.126 1258.04,898.084 1258.07,895.199L1262.29,895.199C1262.43,896.512 1262.63,897.392 1262.89,897.84C1263.3,898.538 1264.1,898.991 1265.29,899.199L1265.29,892.527L1264.02,892.152C1262.03,891.569 1260.63,890.756 1259.81,889.715C1258.99,888.673 1258.58,887.418 1258.58,885.949C1258.58,884.98 1258.74,884.1 1259.06,883.308C1259.38,882.517 1259.82,881.834 1260.39,881.262C1261.13,880.522 1261.96,880.012 1262.86,879.73C1263.42,879.553 1264.22,879.423 1265.29,879.34L1265.29,877.262L1266.77,877.262L1266.77,879.371C1268.47,879.506 1269.8,879.923 1270.77,880.621C1272.53,881.736 1273.44,883.543 1273.51,886.043L1269.39,886.043C1269.31,885.116 1269.16,884.439 1268.93,884.012C1268.53,883.272 1267.81,882.866 1266.77,882.793L1266.77,888.746C1269.25,889.6 1270.92,890.355 1271.77,891.012C1273.18,892.105 1273.88,893.647 1273.88,895.637C1273.88,898.262 1272.92,900.168 1270.99,901.355C1269.81,902.084 1268.42,902.512 1266.8,902.637L1266.8,905.777Z" style="fill:rgb(20,79,123);fill-rule:nonzero;"/></g><g transform="matrix(1.10735,0,0,1.10735,-137.219,-91.4832)"><path d="M1276.99,897.621C1277.62,896.111 1279.12,894.512 1281.49,892.824C1283.54,891.355 1284.87,890.303 1285.47,889.668C1286.4,888.678 1286.86,887.595 1286.86,886.418C1286.86,885.459 1286.6,884.663 1286.07,884.027C1285.54,883.392 1284.78,883.074 1283.79,883.074C1282.43,883.074 1281.51,883.579 1281.02,884.59C1280.74,885.173 1280.57,886.1 1280.52,887.371L1276.19,887.371C1276.27,885.444 1276.61,883.887 1277.24,882.699C1278.43,880.439 1280.54,879.308 1283.57,879.308C1285.96,879.308 1287.87,879.973 1289.29,881.301C1290.7,882.629 1291.41,884.387 1291.41,886.574C1291.41,888.251 1290.91,889.741 1289.91,891.043C1289.26,891.907 1288.18,892.871 1286.68,893.933L1284.89,895.199C1283.78,895.991 1283.02,896.564 1282.61,896.918C1282.19,897.272 1281.85,897.683 1281.57,898.152L1291.46,898.152L1291.46,902.074L1275.94,902.074C1275.98,900.449 1276.33,898.965 1276.99,897.621Z" style="fill:rgb(20,79,123);fill-rule:nonzero;"/></g><g transform="matrix(1.10735,0,0,1.10735,-137.219,-91.4832)"><path d="M1301.55,899.012C1302.87,899.012 1303.74,898.321 1304.15,896.941C1304.56,895.561 1304.77,893.569 1304.77,890.965C1304.77,888.236 1304.56,886.215 1304.15,884.902C1303.74,883.59 1302.87,882.933 1301.55,882.933C1300.23,882.933 1299.35,883.59 1298.93,884.902C1298.5,886.215 1298.29,888.236 1298.29,890.965C1298.29,893.569 1298.5,895.561 1298.93,896.941C1299.35,898.321 1300.23,899.012 1301.55,899.012ZM1309.36,890.965C1309.36,894.704 1308.78,897.584 1307.62,899.605C1306.46,901.626 1304.44,902.637 1301.55,902.637C1298.67,902.637 1296.64,901.626 1295.48,899.605C1294.32,897.584 1293.74,894.704 1293.74,890.965C1293.74,887.225 1294.32,884.34 1295.48,882.308C1296.64,880.277 1298.67,879.262 1301.55,879.262C1304.44,879.262 1306.46,880.277 1307.62,882.308C1308.78,884.34 1309.36,887.225 1309.36,890.965Z" style="fill:rgb(20,79,123);fill-rule:nonzero;"/></g></g><g transform="matrix(1.57935,0,0,1.57935,-135.541,-720.124)"><path d="M310.793,876.042C321.987,873.022 334.822,882.119 342.868,889.009C364.644,907.654 387.084,941.283 419.816,934.876C443.751,930.192 466.161,908.927 485.373,895.435C534.247,861.112 592.624,812.412 656.893,819.276C700.914,823.978 750.129,875.963 784.356,902.56C799.327,914.194 812.599,927.612 832.066,931.081C857.031,935.53 874.627,911.319 899.613,913.349C924.843,915.398 940.723,947.283 966.08,942.787C977.965,940.68 994.692,926.235 1011.12,917.389L1011.12,974.143L310.793,974.143L310.793,876.042Z" style="fill:rgb(19,79,123);fill-opacity:0.17;"/></g></g></g></g><defs><linearGradient id="_Linear2" x1="0" y1="0" x2="1" y2="0" gradientUnits="userSpaceOnUse" gradientTransform="matrix(-267.708,-440.411,440.411,-267.708,3707.57,715.417)"><stop offset="0" style="stop-color:white;stop-opacity:0"/><stop offset="1" style="stop-color:white;stop-opacity:1"/></linearGradient><linearGradient id="_Linear3" x1="0" y1="0" x2="1" y2="0" gradientUnits="userSpaceOnUse" gradientTransform="matrix(-1028.03,-612.664,612.664,-1028.03,4030.11,1319.32)"><stop offset="0" style="stop-color:white;stop-opacity:0"/><stop offset="1" style="stop-color:white;stop-opacity:1"/></linearGradient><linearGradient id="_Linear4" x1="0" y1="0" x2="1" y2="-0.583585" gradientUnits="userSpaceOnUse" gradientTransform="matrix(-780.078,-3745.19,464.897,-6284.27,3216.29,2801.3)"><stop offset="0" style="stop-color:white;stop-opacity:0"/><stop offset="1" style="stop-color:white;stop-opacity:1"/></linearGradient><linearGradient id="_Linear5" x1="0" y1="0" x2="1" y2="0.493787" gradientUnits="userSpaceOnUse" gradientTransform="matrix(-976.559,-361.559,581.992,-606.682,2844.07,789.316)"><stop offset="0" style="stop-color:white;stop-opacity:0"/><stop offset="1" style="stop-color:white;stop-opacity:1"/></linearGradient><linearGradient id="_Linear6" x1="0" y1="0" x2="1" y2="-0.409885" gradientUnits="userSpaceOnUse" gradientTransform="matrix(-519.279,-617.79,309.47,-1036.63,2544.3,1271.61)"><stop offset="0" style="stop-color:white;stop-opacity:0"/><stop offset="1" style="stop-color:white;stop-opacity:1"/></linearGradient><linearGradient id="_Linear7" x1="0" y1="0" x2="1" y2="-0.585335" gradientUnits="userSpaceOnUse" gradientTransform="matrix(-84.3549,-437.239,50.2723,-733.67,2642.48,1320.07)"><stop offset="0" style="stop-color:white;stop-opacity:0"/><stop offset="1" style="stop-color:white;stop-opacity:1"/></linearGradient><linearGradient id="_Linear8" x1="0" y1="0" x2="1" y2="-0.571117" gradientUnits="userSpaceOnUse" gradientTransform="matrix(-383.613,-1296.35,228.619,-2175.22,3014.87,756.335)"><stop offset="0" style="stop-color:white;stop-opacity:0"/><stop offset="1" style="stop-color:white;stop-opacity:1"/></linearGradient><linearGradient id="_Linear9" x1="0" y1="0" x2="1" y2="-0.507458" gradientUnits="userSpaceOnUse" gradientTransform="matrix(-314.507,-555.079,187.434,-931.4,2484.53,2092.11)"><stop offset="0" style="stop-color:white;stop-opacity:0"/><stop offset="1" style="stop-color:white;stop-opacity:1"/></linearGradient></defs></svg>